<?xml version="1.0" standalone="no"?>
<!DOCTYPE svg PUBLIC "-//W3C//DTD SVG 1.1//EN" "http://www.w3.org/Graphics/SVG/1.1/DTD/svg11.dtd" >
<svg>
<metadata>
Created by FontForge 20090622 at Thu May 25 09:26:02 2017
 By deploy user
Copyright Erik Spiekermann, Ole Sch\212fer, 1996. Published by FontShop International FontFont release 17
</metadata>
<defs>
<font id="InfoText-Normal" horiz-adv-x="540" >
  <font-face 
    font-family="InfoText"
    font-weight="400"
    font-stretch="normal"
    units-per-em="1000"
    panose-1="2 0 5 6 4 0 0 2 0 4"
    ascent="800"
    descent="-200"
    x-height="482"
    cap-height="670"
    bbox="-62.0417 -250 1238 892.529"
    underline-thickness="20"
    underline-position="-113"
    unicode-range="U+0020-U+FB02"
  />
<missing-glyph horiz-adv-x="1000" 
 />
    <glyph glyph-name="fi" unicode="fi" horiz-adv-x="491" 
d="M413 20q0 -8 -6.5 -14t-14.5 -6h-36q-8 0 -14.5 6t-6.5 14v398h-167v-398q0 -8 -6.5 -14t-14.5 -6h-36q-8 0 -14.5 6t-6.5 14v398h-55q-9 0 -14.5 6.5t-5.5 14.5v22q0 8 5.5 14.5t14.5 6.5h55v92q0 42 12.5 69t33.5 42.5t49.5 21.5t61.5 6q15 0 33 -2.5t35.5 -6.5
t32.5 -8.5t23 -7.5q8 -4 11 -11.5t0 -15.5l-13 -31q-6 -16 -23 -10q-15 5 -44 13.5t-55 8.5q-17 0 -31 -2.5t-25 -10t-17 -22t-6 -38.5v-87h224q21 0 21 -20v-442z" />
    <glyph glyph-name="fl" unicode="fl" horiz-adv-x="507" 
d="M497 27q3 -15 -13 -21q-13 -5 -27.5 -8t-31.5 -3q-48 0 -69.5 21.5t-21.5 63.5v548q-14 5 -40 10.5t-48 5.5q-14 0 -27.5 -1.5t-24 -8.5t-17 -21t-6.5 -39v-92h77q8 0 14 -6.5t6 -14.5v-22q0 -8 -6 -14.5t-14 -6.5h-77v-398q0 -8 -6.5 -14t-14.5 -6h-36q-8 0 -14.5 6
t-6.5 14v398h-57q-9 0 -14.5 6.5t-5.5 14.5v22q0 8 5.5 14.5t14.5 6.5h57v97q0 42 12.5 68.5t33.5 41t48.5 19.5t57.5 5q20 0 41.5 -3.5t42 -8t37 -10t26.5 -8.5q8 -3 14 -8t6 -16v-559q0 -19 4 -29t21 -10q7 0 15 2t17 4q18 4 22 -13z" />
    <glyph glyph-name=".notdef" horiz-adv-x="1000" 
 />
    <glyph glyph-name=".null" horiz-adv-x="0" 
 />
    <glyph glyph-name="nonmarkingreturn" horiz-adv-x="200" 
 />
    <glyph glyph-name="space" unicode=" " horiz-adv-x="200" 
 />
    <glyph glyph-name="exclam" unicode="!" horiz-adv-x="318" 
d="M222 58q0 -26 -18.5 -44.5t-44.5 -18.5t-44 18.5t-18 44.5t18 44t44 18t44.5 -18t18.5 -44zM197 231q0 -14 -5.5 -19t-14.5 -5h-34q-9 0 -14.5 6.5t-5.5 17.5l-13 438q0 20 21 20h56q21 0 21 -20z" />
    <glyph glyph-name="quotedbl" unicode="&#x22;" horiz-adv-x="350" 
d="M132 524q-1 -8 -7 -14t-14 -6h-22q-8 0 -14 6t-7 14l-8 164q-1 9 6 14.5t15 5.5h38q8 0 15 -5.5t6 -14.5zM272 524q-1 -8 -7 -14t-14 -6h-22q-8 0 -14 6t-7 14l-8 164q-1 9 6 14.5t15 5.5h38q8 0 15 -5.5t6 -14.5z" />
    <glyph glyph-name="numbersign" unicode="#" horiz-adv-x="579" 
d="M238 420l-22 -149h125l22 149h-125zM528 441q-2 -8 -7 -14.5t-13 -6.5h-77l-22 -149h75q8 0 13 -6t4 -14l-3 -22q-1 -8 -6.5 -14t-13.5 -6h-78l-28 -189q-2 -8 -9 -14t-15 -6h-26q-8 0 -14 6t-4 14l28 189h-125l-28 -189q-2 -8 -9 -14t-15 -6h-26q-8 0 -14 6t-4 14
l28 189h-75q-9 0 -13.5 6.5t-3.5 14.5l3 22q1 8 6 13.5t14 5.5h78l22 149h-76q-9 0 -14 7t-3 15l3 21q3 19 20 19h79l23 168q2 9 9 14.5t15 5.5h26q8 0 14 -5.5t4 -14.5l-23 -168h125l23 168q2 9 9 14.5t15 5.5h26q8 0 14 -5.5t4 -14.5l-23 -168h74q8 0 13.5 -6t3.5 -14z
" />
    <glyph glyph-name="dollar" unicode="$" horiz-adv-x="483" 
d="M362 174q0 43 -21 65.5t-52 37.5v-199q34 11 53.5 35t19.5 61zM225 578q-37 -9 -54 -35t-17 -63q0 -35 20.5 -57.5t50.5 -36.5v192zM448 177q0 -32 -10 -61t-29.5 -52.5t-49.5 -40t-70 -23.5v-81q0 -8 -6.5 -14t-14.5 -6h-22q-8 0 -14.5 6t-6.5 14v76q-41 1 -82 9t-69 19
q-19 7 -14 25l10 39q2 8 8.5 13t17.5 1q26 -9 59.5 -18.5t69.5 -10.5v231q-29 11 -56.5 24.5t-50 33.5t-36 48t-13.5 68q0 67 40 114.5t116 59.5v68q0 9 6.5 14.5t14.5 5.5h22q8 0 14.5 -5.5t6.5 -14.5v-65q29 -2 61.5 -7.5t52.5 -12.5q7 -2 10.5 -10t1.5 -16l-8 -32
q-2 -8 -9.5 -13t-13.5 -3q-21 6 -45 12t-50 8v-216q28 -11 56.5 -25.5t51.5 -36.5t37 -52t14 -73z" />
    <glyph glyph-name="percent" unicode="%" horiz-adv-x="936" 
d="M311 450q0 28 -4 54t-13 45.5t-23 31t-34 11.5t-35 -11.5t-25 -31t-15 -45.5t-5 -54t5 -54t15 -45.5t25 -31t35 -11.5t34 11.5t23 31t13 45.5t4 54zM780 198q0 28 -4 54t-13 45.5t-23 31t-34 11.5t-35 -11.5t-25 -31t-15 -45.5t-5 -54t5 -54t15 -45.5t25 -31t35 -11.5
t34 11.5t23 31t13 45.5t4 54zM389 450q0 -95 -39 -149t-110 -54q-35 0 -65 14t-51.5 40t-33.5 64t-12 85t12 84.5t33.5 64t51.5 40.5t65 14q71 0 110 -54t39 -149zM400 -32q-2 -8 -5 -12t-11 -4h-38q-12 0 -14.5 5.5t0.5 15.5l203 701q6 20 23 20h31q21 0 14 -23zM858 198
q0 -95 -39 -149t-110 -54q-35 0 -65 14t-51.5 40t-33.5 64t-12 85t12 84.5t33.5 64t51.5 40.5t65 14q71 0 110 -54t39 -149z" />
    <glyph glyph-name="ampersand" unicode="&#x26;" horiz-adv-x="606" 
d="M219 311q-31 -23 -49.5 -58.5t-18.5 -73.5q0 -49 32 -81t83 -32q41 0 70.5 16.5t47.5 37.5zM329 520q0 42 -16 66.5t-57 24.5q-14 0 -27 -5t-24 -15.5t-17.5 -27.5t-6.5 -41q0 -17 3.5 -30t11 -26.5t20.5 -29.5l33 -39l31 24t25.5 26.5t17 32t6.5 40.5zM554 42
q5 -6 4.5 -15t-7.5 -14l-27 -23q-7 -6 -15.5 -5.5t-13.5 6.5l-66 77q-26 -30 -67 -51.5t-104 -21.5q-52 0 -89 14.5t-61 39.5t-35.5 58t-11.5 70q0 27 9 53.5t24.5 50.5t36.5 44.5t46 34.5q-36 42 -57.5 77.5t-21.5 80.5q0 29 11 57t31.5 50.5t50 36t66.5 13.5
q36 0 64.5 -11t49 -31.5t31.5 -48.5t11 -61q0 -29 -10 -53t-26.5 -45t-39.5 -39.5t-48 -35.5l133 -155q5 21 8.5 48t3.5 50v28q0 9 6 15t14 6h33q10 0 16 -6t6 -15v-25q0 -45 -9.5 -85.5t-25.5 -75.5z" />
    <glyph glyph-name="quotesingle" unicode="'" horiz-adv-x="200" 
d="M132 524q-1 -8 -7 -14t-14 -6h-22q-8 0 -14 6t-7 14l-8 164q-1 9 6 14.5t15 5.5h38q8 0 15 -5.5t6 -14.5z" />
    <glyph glyph-name="parenleft" unicode="(" horiz-adv-x="296" 
d="M239 -90q6 -17 -6 -23l-21 -10q-18 -8 -26 6q-23 39 -42.5 89t-33.5 105t-22 113t-8 113t8 113t22 113t33.5 105t42.5 89q8 14 26 6l21 -10q12 -6 6 -23q-20 -56 -33.5 -101.5t-21.5 -90t-12 -92.5t-4 -109t4 -109t12 -92.5t21.5 -90t33.5 -101.5z" />
    <glyph glyph-name="parenright" unicode=")" horiz-adv-x="296" 
d="M216 303q0 -55 -8 -113t-22 -113t-33.5 -105t-42.5 -89q-8 -14 -26 -6l-21 10q-12 6 -6 23q19 56 33 101.5t22 90t12 92.5t4 109t-4 109t-12 92.5t-22 90t-33 101.5q-6 17 6 23l21 10q18 8 26 -6q23 -39 42.5 -89t33.5 -105t22 -113t8 -113z" />
    <glyph glyph-name="asterisk" unicode="*" horiz-adv-x="462" 
d="M416 568q2 -8 -2 -16t-12 -11l-122 -40l76 -103q6 -8 5.5 -16t-8.5 -13l-17 -12q-8 -5 -16 -3.5t-13 8.5l-76 104l-76 -104q-5 -7 -13 -8.5t-16 3.5l-17 12q-8 5 -8.5 13t5.5 16l76 103l-122 40q-19 7 -14 26l6 20q2 8 10 11.5t17 0.5l122 -40v128q0 9 6 15t14 6h20
q9 0 14.5 -6t5.5 -15v-128l122 40q20 7 27 -12z" />
    <glyph glyph-name="plus" unicode="+" horiz-adv-x="528" 
d="M478 238q0 -21 -22 -21h-155v-160q0 -21 -21 -21h-31q-22 0 -22 21v160h-156q-21 0 -21 21v29q0 22 21 22h156v153q0 22 22 22h31q21 0 21 -22v-153h155q22 0 22 -22v-29z" />
    <glyph glyph-name="comma" unicode="," horiz-adv-x="188" 
d="M156 50q0 -19 -6.5 -39t-16.5 -39.5t-22.5 -36.5t-25.5 -30q-15 -15 -28 -5l-14 12q-15 12 -3 26q11 14 17 22.5t10 16.5q6 14 3.5 19t-8.5 8q-12 6 -21.5 20t-9.5 33q0 28 18.5 45.5t43.5 17.5q26 0 44.5 -18.5t18.5 -51.5z" />
    <glyph glyph-name="hyphen" unicode="-" horiz-adv-x="324" 
d="M268 245q0 -21 -22 -21h-169q-21 0 -21 21v32q0 22 21 22h169q22 0 22 -22v-32z" />
    <glyph glyph-name="hyphen" unicode="&#xad;" horiz-adv-x="324" 
d="M268 245q0 -21 -22 -21h-169q-21 0 -21 21v32q0 22 21 22h169q22 0 22 -22v-32z" />
    <glyph glyph-name="period" unicode="." horiz-adv-x="186" 
d="M156 58q0 -26 -18.5 -44.5t-44.5 -18.5t-44 18.5t-18 44.5t18 44t44 18t44.5 -18t18.5 -44z" />
    <glyph glyph-name="slash" unicode="/" horiz-adv-x="311" 
d="M95 -77q-4 -17 -22 -17h-34q-18 0 -12 22l215 744q2 8 7 12.5t16 4.5h32q8 0 12 -5t1 -15z" />
    <glyph glyph-name="zero" unicode="0" horiz-adv-x="483" 
d="M353 277q0 43 -4.5 81.5t-16.5 67.5t-33 46.5t-53 17.5t-54.5 -17.5t-36 -46.5t-19.5 -67.5t-6 -81.5t5 -82.5t17.5 -69.5t34 -47.5t53.5 -17.5t54 17.5t35 47.5t18.5 69.5t5.5 82.5zM436 277q0 -64 -12.5 -116t-37.5 -89t-62.5 -57t-87.5 -20t-85.5 20t-58.5 57t-34 89
t-11 116t13 115.5t38.5 87.5t63.5 55.5t88 19.5t85 -19.5t57.5 -55.5t33 -87.5t10.5 -115.5z" />
    <glyph glyph-name="one" unicode="1" horiz-adv-x="312" 
d="M287 21q0 -8 -6 -14.5t-14 -6.5h-192q-9 0 -14.5 6.5t-5.5 14.5v25q0 8 5.5 14.5t14.5 6.5h65v386l-70 -36q-17 -9 -26 8l-14 26q-4 7 -2 15t9 12l144 74q12 6 24.5 2t12.5 -21v-466h49q8 0 14 -6.5t6 -14.5v-25z" />
    <glyph glyph-name="two" unicode="2" horiz-adv-x="429" 
d="M383 21q0 -8 -6 -14.5t-14 -6.5h-300q-9 0 -14.5 6.5t-5.5 14.5v37q0 8 1.5 13.5t7.5 10.5l107.5 97t72 76t40 63t12.5 58q0 42 -24 73.5t-71 31.5q-32 0 -56 -10.5t-47 -23.5q-11 -6 -17.5 -1t-10.5 13l-16 30q-5 8 -0.5 15t14.5 12q32 18 63.5 28.5t69.5 10.5
q43 0 75.5 -13.5t55 -37.5t34 -55.5t11.5 -67.5q0 -38 -10 -69t-35 -64.5t-67.5 -74.5t-107.5 -98h218q8 0 14 -6.5t6 -14.5v-33z" />
    <glyph glyph-name="three" unicode="3" horiz-adv-x="407" 
d="M373 71q0 -47 -21 -89t-61.5 -73t-100 -49t-137.5 -18q-13 0 -18 6t-6 14l-4 34q-3 21 20 21q59 0 104.5 12.5t76 33.5t46.5 50t16 62q0 56 -43 91t-122 35q-14 0 -19 4.5t-5 15.5v36q0 11 5 16.5t19 5.5q27 0 52.5 7.5t45 21.5t31.5 33t12 43q0 45 -26.5 71.5
t-76.5 26.5q-26 0 -46 -6t-46 -22q-10 -6 -16.5 -2.5t-11.5 11.5l-15 29q-6 11 -2.5 18t14.5 13q33 17 67.5 24.5t64.5 7.5q39 0 71 -12t55 -33.5t36 -52t13 -67.5q0 -16 -5 -36.5t-18.5 -40.5t-36 -38.5t-56.5 -30.5q69 -12 106.5 -56.5t37.5 -116.5z" />
    <glyph glyph-name="four" unicode="4" horiz-adv-x="454" 
d="M417 55q0 -8 -6 -14.5t-14 -6.5h-49v-141q0 -8 -6.5 -14t-14.5 -6h-37q-8 0 -14.5 6t-6.5 14v141h-218q-9 0 -14.5 6.5t-5.5 14.5v36q0 6 1.5 10.5l3.5 10.5l156 423q5 15 21 15h54q10 0 12.5 -6.5t-0.5 -13.5l-163 -423h153l16 198q2 20 21 20h21q8 0 14.5 -5.5
t6.5 -14.5v-198h49q8 0 14 -6.5t6 -14.5v-31z" />
    <glyph glyph-name="five" unicode="5" horiz-adv-x="470" 
d="M416 116q0 -63 -19.5 -113.5t-59.5 -86t-100.5 -55t-142.5 -19.5q-13 0 -18 6t-6 14l-4 34q-2 11 4 17t16 6q71 0 118.5 15t76 41t40.5 61t12 76q0 69 -25 103t-61 34q-31 0 -55 -14.5t-43 -34.5q-8 -8 -14.5 -10t-17.5 5l-29 18q-8 5 -10.5 9.5t-1.5 15.5l10 292
q0 8 6.5 14t14.5 6h259q8 0 14 -6.5t6 -14.5v-33q0 -8 -6 -14.5t-14 -6.5h-204l-7 -195q41 36 104 36q32 0 60.5 -11.5t50 -36t34 -62.5t12.5 -90z" />
    <glyph glyph-name="six" unicode="6" horiz-adv-x="482" 
d="M344 207q0 71 -25.5 112.5t-65.5 41.5q-47 0 -75.5 -39.5t-28.5 -106.5q0 -70 26.5 -113t70.5 -43q46 0 72 39.5t26 108.5zM427 215q0 -101 -47 -160.5t-138 -59.5q-88 0 -134 67t-46 199q0 65 5.5 114.5t16.5 88.5t27 69t38 55q26 29 65 47t85 18q21 0 39.5 -2.5
t39.5 -8.5q9 -2 12.5 -8t1.5 -14l-7 -34q-3 -19 -24 -15q-8 2 -25 5.5t-37 3.5q-32 0 -59 -15.5t-47 -45t-32.5 -73t-14.5 -98.5q21 38 51.5 58t76.5 20q38 0 67 -17t48 -45.5t28.5 -67t9.5 -81.5z" />
    <glyph glyph-name="seven" unicode="7" horiz-adv-x="373" 
d="M162 -94q-7 -18 -23 -18h-49q-8 0 -13 6t-2 15l191 566h-252q-21 0 -21 20v35q0 10 6.5 15t14.5 5h326q11 0 16.5 -7t1.5 -18z" />
    <glyph glyph-name="eight" unicode="8" horiz-adv-x="480" 
d="M345 178q0 22 -3.5 42.5t-14.5 38t-31 33t-53 29.5q-22 -8 -41 -18.5t-33 -26.5t-22 -39.5t-8 -58.5q0 -57 27.5 -87.5t76.5 -30.5q48 0 75 30.5t27 87.5zM334 494q0 48 -25.5 73.5t-66.5 25.5q-39 0 -63.5 -26.5t-24.5 -71.5q0 -44 20.5 -70.5t68.5 -49.5q46 21 68.5 47
t22.5 72zM430 170q0 -84 -52 -129.5t-140 -45.5t-136 44.5t-48 129.5q0 25 6 52t20 51t35.5 44t53.5 31q-44 21 -70.5 55.5t-26.5 88.5q0 35 12.5 64.5t35.5 51.5t54.5 34t69.5 12q81 0 126.5 -43.5t45.5 -118.5q0 -26 -5 -45.5t-17 -36t-30.5 -31.5t-45.5 -31
q22 -9 42.5 -24t36 -36.5t24.5 -50.5t9 -66z" />
    <glyph glyph-name="nine" unicode="9" horiz-adv-x="477" 
d="M329 333q0 70 -26.5 113t-70.5 43q-46 0 -73 -39.5t-27 -108.5q0 -71 26.5 -112.5t66.5 -41.5q47 0 75.5 39.5t28.5 106.5zM416 287q0 -75 -4.5 -131.5t-15.5 -99t-29.5 -74t-45.5 -58.5q-41 -40 -91.5 -53.5t-117.5 -13.5q-12 0 -16 4.5t-5 13.5l-2 35q-1 13 5.5 17.5
t19.5 4.5q50 0 90 11.5t68.5 41.5t44 82.5t15.5 134.5q-21 -38 -52.5 -58.5t-77.5 -20.5q-38 0 -67 17t-48 46.5t-28.5 69t-9.5 85.5q0 48 12.5 87t36.5 67t58.5 43.5t78.5 15.5q90 0 135.5 -67t45.5 -200z" />
    <glyph glyph-name="colon" unicode=":" horiz-adv-x="206" 
d="M176 58q0 -26 -18.5 -44.5t-44.5 -18.5t-44 18.5t-18 44.5t18 44t44 18t44.5 -18t18.5 -44zM176 368q0 -26 -18.5 -44.5t-44.5 -18.5t-44 18.5t-18 44.5t18 44t44 18t44.5 -18t18.5 -44z" />
    <glyph glyph-name="semicolon" unicode=";" horiz-adv-x="208" 
d="M176 50q0 -19 -6.5 -39t-16.5 -39.5t-22.5 -36.5t-25.5 -30q-15 -15 -28 -5l-14 12q-15 12 -3 26q11 14 17 22.5t10 16.5q6 14 3.5 19t-8.5 8q-12 6 -21.5 20t-9.5 33q0 28 18.5 45.5t43.5 17.5q26 0 44.5 -18.5t18.5 -51.5zM176 368q0 -26 -18.5 -44.5t-44.5 -18.5
t-44 18.5t-18 44.5t18 44t44 18t44.5 -18t18.5 -44z" />
    <glyph glyph-name="semicolon" unicode="&#x37e;" horiz-adv-x="208" 
d="M176 50q0 -19 -6.5 -39t-16.5 -39.5t-22.5 -36.5t-25.5 -30q-15 -15 -28 -5l-14 12q-15 12 -3 26q11 14 17 22.5t10 16.5q6 14 3.5 19t-8.5 8q-12 6 -21.5 20t-9.5 33q0 28 18.5 45.5t43.5 17.5q26 0 44.5 -18.5t18.5 -51.5zM176 368q0 -26 -18.5 -44.5t-44.5 -18.5
t-44 18.5t-18 44.5t18 44t44 18t44.5 -18t18.5 -44z" />
    <glyph glyph-name="less" unicode="&#x3c;" horiz-adv-x="512" 
d="M437 126q0 -8 -6.5 -12.5t-14.5 -1.5l-332 136q-14 6 -14 21v32q0 14 14 21l332 157q8 4 14.5 -1t6.5 -13v-39q0 -15 -14 -21l-267 -117l265 -102q16 -6 16 -22v-38z" />
    <glyph glyph-name="equal" unicode="=" horiz-adv-x="572" 
d="M521 213q0 -21 -22 -21h-427q-21 0 -21 21v23q0 22 21 22h427q22 0 22 -22v-23zM521 369q0 -21 -22 -21h-427q-21 0 -21 21v23q0 22 21 22h427q22 0 22 -22v-23z" />
    <glyph glyph-name="greater" unicode="&#x3e;" horiz-adv-x="512" 
d="M437 269q0 -15 -14 -21l-332 -136q-8 -3 -14.5 1.5t-6.5 12.5v38q0 16 16 22l265 101l-267 117q-14 6 -14 21v40q0 8 6.5 13t14.5 1l332 -157q14 -7 14 -21v-32z" />
    <glyph glyph-name="question" unicode="?" horiz-adv-x="420" 
d="M245 58q0 -26 -18 -44.5t-44 -18.5t-44.5 18.5t-18.5 44.5t18.5 44t44.5 18t44 -18t18 -44zM354 535q0 -46 -20.5 -84t-45 -72t-45 -66t-20.5 -65v-14q0 -15 -4.5 -21t-15.5 -6h-39q-12 0 -17 6t-5 21v12q0 47 19 83t41.5 68.5t41.5 63.5t19 68q0 38 -21.5 59.5
t-59.5 21.5q-31 0 -52 -11.5t-29 -14.5q-11 -5 -18 -1t-10 10l-16 37q-6 15 8 25q26 19 59.5 29t67.5 10q36 0 65.5 -12t51 -33t33.5 -50.5t12 -63.5z" />
    <glyph glyph-name="at" unicode="@" horiz-adv-x="889" 
d="M538 326q0 43 -18.5 69t-48.5 26q-50 0 -85 -59q-11 -18 -20.5 -43.5t-16.5 -53.5t-10.5 -56.5t-2.5 -52.5q3 -96 63 -96q29 0 54.5 22t44.5 59t29.5 85t10.5 100zM812 338q0 -163 -54 -253t-155 -90q-29 0 -45.5 9t-25.5 22.5t-12 29.5t-4 30q-27 -41 -61.5 -66
t-87.5 -25q-52 0 -81 38.5t-31 110.5q-2 67 14.5 129t45.5 109.5t67.5 76t80.5 28.5q29 0 55.5 -16.5t41.5 -51.5l18 43q8 20 28 20h25q7 0 12.5 -3.5t3.5 -16.5l-57 -295q-5 -23 -7 -42.5t0.5 -34t10.5 -23t23 -8.5q57 0 89.5 71t32.5 197q0 66 -15 119t-45.5 90t-76.5 57
t-108 20q-67 0 -127.5 -31t-106.5 -88t-73 -138t-27 -180q0 -78 19.5 -137t55 -98t85.5 -59t112 -20q44 0 79 9.5t66 26.5q8 5 14.5 2t8.5 -9l12 -32q5 -14 -8 -21q-43 -22 -93 -31t-101 -9q-66 0 -125 24.5t-103.5 72t-70.5 117.5t-26 162q0 100 31 191t87 160t133 109.5
t169 40.5q73 0 130.5 -25.5t96.5 -70.5t59.5 -106.5t20.5 -134.5z" />
    <glyph glyph-name="A" unicode="A" 
d="M279 545q-5 19 -8.5 40.5l-6.5 41.5q-5 -44 -15 -82l-77 -290h187zM519 22q3 -9 -1.5 -15.5t-12.5 -6.5h-52q-8 0 -16.5 6t-10.5 14l-48 167h-224l-45 -167q-2 -8 -9 -14t-15 -6h-49q-8 0 -12.5 6.5t-1.5 15.5l184 628q3 11 11 15.5t16 4.5h63q8 0 16 -4.5t11 -15.5z" />
    <glyph glyph-name="B" unicode="B" horiz-adv-x="571" 
d="M433 196q0 55 -36.5 89t-101.5 34h-115v-246h135q56 0 87 32.5t31 90.5zM408 493q0 51 -27.5 78.5t-84.5 27.5h-116v-213h107q61 0 91 28t30 79zM520 187q0 -90 -54 -138.5t-148 -48.5h-197q-8 0 -14.5 6t-6.5 14v630q0 9 6.5 14.5t14.5 5.5h188q87 0 135 -45t48 -119
q0 -59 -28.5 -97t-92.5 -55q38 -3 66 -17t46.5 -36.5t27.5 -51.5t9 -62z" />
    <glyph glyph-name="C" unicode="C" horiz-adv-x="486" 
d="M440 46q4 -8 0.5 -14.5t-9.5 -9.5q-20 -10 -48.5 -18.5t-74.5 -8.5q-121 0 -187 89.5t-66 255.5q0 79 19 141.5t53 105.5t82 65.5t105 22.5q29 0 59 -5t56 -21q8 -5 10.5 -13t-2.5 -16l-16 -31q-9 -17 -27 -8q-17 8 -35.5 13.5t-41.5 5.5q-84 0 -129 -62t-45 -199
q0 -71 13 -121.5t36 -82.5t54.5 -47.5t68.5 -15.5q20 0 44.5 6.5t37.5 12.5q9 5 15.5 2t9.5 -9z" />
    <glyph glyph-name="D" unicode="D" horiz-adv-x="577" 
d="M433 329q0 48 -3.5 83t-10.5 61t-17 45t-23 34q-22 25 -53.5 36t-65.5 11h-79v-526h79q37 0 68.5 8t54.5 35t36.5 77.5t13.5 135.5zM521 343q0 -86 -13.5 -150.5t-44 -107.5t-79.5 -64t-121 -21h-142q-8 0 -14.5 6t-6.5 14v630q0 9 6.5 14.5t14.5 5.5h139
q138 0 199.5 -82.5t61.5 -244.5z" />
    <glyph glyph-name="E" unicode="E" horiz-adv-x="509" 
d="M454 20q0 -8 -6.5 -14t-14.5 -6h-312q-8 0 -14.5 6t-6.5 14v630q0 9 6.5 14.5t14.5 5.5h304q8 0 14.5 -5.5t6.5 -14.5v-33q0 -9 -5.5 -15.5t-15.5 -6.5h-244v-204h220q9 0 15 -6t6 -14v-31q0 -10 -6 -16t-15 -6h-220v-241h251q9 0 15.5 -6t6.5 -15v-36z" />
    <glyph glyph-name="F" unicode="F" horiz-adv-x="462" 
d="M438 617q0 -9 -5.5 -15.5t-15.5 -6.5h-236v-204h212q9 0 15 -6t6 -14v-31q0 -10 -6 -16t-15 -6h-212v-298q0 -8 -6.5 -14t-14.5 -6h-39q-8 0 -14.5 6t-6.5 14v630q0 9 6.5 14.5t14.5 5.5h296q8 0 14.5 -5.5t6.5 -14.5v-33z" />
    <glyph glyph-name="G" unicode="G" horiz-adv-x="574" 
d="M493 53q0 -15 -6.5 -22.5t-20.5 -12.5q-28 -11 -69 -17t-82 -6q-125 0 -192 85t-67 258q0 160 70 248.5t202 88.5q38 0 76.5 -9.5t69.5 -25.5q9 -5 11 -12t-1 -15l-17 -37q-2 -5 -8.5 -9t-14.5 0q-26 14 -55.5 22.5t-64.5 8.5q-94 0 -137.5 -64.5t-43.5 -201.5
q0 -71 13 -121t37.5 -81.5t59.5 -46t79 -14.5q43 0 82 12v225h-107q-9 0 -14.5 6.5t-5.5 14.5v36q0 8 5.5 14.5t14.5 6.5h165q8 0 14.5 -5.5t6.5 -14.5v-311z" />
    <glyph glyph-name="H" unicode="H" horiz-adv-x="613" 
d="M513 20q0 -8 -6.5 -14t-14.5 -6h-38q-8 0 -14.5 6t-6.5 14v299h-253v-299q0 -8 -6.5 -14t-14.5 -6h-38q-8 0 -14.5 6t-6.5 14v630q0 9 6.5 14.5t14.5 5.5h38q8 0 14.5 -5.5t6.5 -14.5v-259h253v259q0 9 6.5 14.5t14.5 5.5h38q8 0 14.5 -5.5t6.5 -14.5v-630z" />
    <glyph glyph-name="I" unicode="I" horiz-adv-x="280" 
d="M182 20q0 -8 -6.5 -14t-14.5 -6h-42q-8 0 -14.5 6t-6.5 14v630q0 9 6.5 14.5t14.5 5.5h42q8 0 14.5 -5.5t6.5 -14.5v-630z" />
    <glyph glyph-name="J" unicode="J" horiz-adv-x="267" 
d="M167 -61q0 -42 -15.5 -70.5t-59.5 -51.5l-33 -17q-8 -4 -15 -1.5t-11 10.5l-15 30q-4 7 -2 14.5t12 12.5q31 16 45 33.5t14 40.5v710q0 9 6.5 14.5t14.5 5.5h38q8 0 14.5 -5.5t6.5 -14.5v-711z" />
    <glyph glyph-name="K" unicode="K" horiz-adv-x="510" 
d="M496 20q5 -8 3 -14t-12 -6h-65q-17 0 -25 13l-217 355v-348q0 -8 -6.5 -14t-14.5 -6h-38q-8 0 -14.5 6t-6.5 14v630q0 9 6.5 14.5t14.5 5.5h38q8 0 14.5 -5.5t6.5 -14.5v-274l199 284q7 10 21 10h62q14 0 13 -7.5t-4 -11.5l-206 -278z" />
    <glyph glyph-name="L" unicode="L" horiz-adv-x="429" 
d="M421 20q0 -8 -6 -14t-14 -6h-280q-8 0 -14.5 6t-6.5 14v630q0 9 6.5 14.5t14.5 5.5h38q8 0 14.5 -5.5t6.5 -14.5v-576h221q8 0 14 -6t6 -14v-34z" />
    <glyph glyph-name="M" unicode="M" horiz-adv-x="721" 
d="M653 17q2 -17 -14 -17h-53q-17 0 -19 17l-26 465q0 9 -0.5 26.5t-1 37.5l-1 39.5t-0.5 32.5q-2 -11 -3.5 -27.5t-4 -35t-6 -38t-7.5 -34.5l-107 -394q-3 -11 -7.5 -15.5t-13.5 -4.5h-59q-9 0 -13.5 4.5t-7.5 15.5l-107 394q-9 33 -13 71t-9 64v-31v-39t-0.5 -38t-1.5 -27
l-29 -465q-2 -18 -17 -18h-50q-8 0 -12.5 6t-3.5 14l51 631q1 8 7.5 13.5t15.5 5.5h77q8 0 13 -5t7 -11l109 -417q6 -23 9 -53.5l6 -58.5q2 28 5 58t10 55l109 416q4 16 21 16h75q9 0 15 -4.5t7 -14.5z" />
    <glyph glyph-name="N" unicode="N" horiz-adv-x="636" 
d="M536 19q0 -8 -6.5 -13.5t-14.5 -5.5h-70q-16 0 -24 16l-212 473q-14 32 -24.5 65.5t-19.5 65.5q1 -15 3 -34t3.5 -38t2.5 -36.5t1 -29.5l2 -463q0 -8 -6.5 -13.5t-14.5 -5.5h-35q-8 0 -14.5 5.5t-6.5 13.5v632q0 10 6 14.5t15 4.5h76q17 0 23 -14l208 -473
q15 -34 24.5 -66t18.5 -58q-2 30 -6 67.5t-4 69.5l-2 455q0 8 6.5 13.5t14.5 5.5h35q8 0 14.5 -5.5t6.5 -13.5v-632z" />
    <glyph glyph-name="O" unicode="O" horiz-adv-x="576" 
d="M428 334q0 57 -6 107t-21.5 87t-42.5 58.5t-70 21.5q-48 0 -76 -24.5t-42 -63.5t-18 -88t-4 -98q0 -142 34 -205.5t106 -63.5q39 0 66 19t43.5 54t23.5 84.5t7 111.5zM515 333q0 -176 -58 -257t-168 -81q-112 0 -170 81t-58 257q0 175 58 258.5t170 83.5t169 -83.5
t57 -258.5z" />
    <glyph glyph-name="P" unicode="P" horiz-adv-x="508" 
d="M384 476q0 57 -29.5 89.5t-91.5 32.5h-82v-250h82q59 0 90 37t31 91zM468 479q0 -44 -13.5 -80.5t-40 -63t-65.5 -41.5t-89 -15h-79v-259q0 -8 -6.5 -14t-14.5 -6h-39q-8 0 -14.5 6t-6.5 14v630q0 9 6.5 14.5t14.5 5.5h136q104 0 157.5 -52.5t53.5 -138.5z" />
    <glyph glyph-name="Q" unicode="Q" horiz-adv-x="576" 
d="M428 334q0 57 -6 107t-21.5 87t-42.5 58.5t-70 21.5q-48 0 -76 -24.5t-42 -63.5t-18 -88t-4 -98q0 -142 34 -205.5t106 -63.5q39 0 66 19t43.5 54t23.5 84.5t7 111.5zM576 -64q-3 -8 -11 -11.5t-16 -0.5q-17 6 -37.5 17t-40.5 24.5t-37.5 29t-28.5 30.5
q-17 -11 -46.5 -20.5t-69.5 -9.5q-112 0 -170 81t-58 257q0 175 58 258.5t170 83.5t169 -83.5t57 -258.5q0 -85 -14 -149.5t-47 -112.5q27 -23 61.5 -42t65.5 -29q7 -2 10 -9.5t-1 -18.5z" />
    <glyph glyph-name="R" unicode="R" horiz-adv-x="564" 
d="M406 495q0 45 -29.5 73.5t-87.5 28.5h-108v-219h97q60 0 94 30.5t34 86.5zM530 24q4 -11 0.5 -17.5t-14.5 -6.5h-60q-14 0 -18 12l-37.5 118.5t-38.5 90.5q-9 15 -19.5 30.5t-25.5 27.5t-35 19.5t-48 7.5h-53v-286q0 -8 -6.5 -14t-14.5 -6h-39q-8 0 -14.5 6t-6.5 14v630
q0 9 6.5 14.5t14.5 5.5h169q61 0 100 -16.5t61 -41.5t30 -53t8 -52q0 -27 -8.5 -55t-26.5 -51t-46.5 -39.5t-69.5 -20.5l-9 -1q22 -4 41 -15t34 -26t27 -32.5t20 -35.5q7 -14 28 -68t51 -139z" />
    <glyph glyph-name="S" unicode="S" horiz-adv-x="483" 
d="M439 187q0 -38 -13.5 -72.5t-41 -61t-69 -42.5t-96.5 -16q-42 0 -84 8.5t-71 19.5q-19 7 -14 25l10 39q2 8 8.5 13t17.5 1q27 -10 61.5 -19.5t72.5 -9.5q60 0 95.5 30.5t35.5 81.5q0 46 -28 71t-68 43l-47 21q-27 12 -53.5 25.5t-48 33.5t-34.5 48.5t-13 70.5
q0 38 13.5 70.5t39 56.5t63 37.5t86.5 13.5q31 0 65 -6.5t57 -14.5q7 -2 10.5 -10t1.5 -16l-8 -32q-2 -8 -9.5 -13t-13.5 -3q-25 8 -48.5 13.5t-54.5 5.5q-62 0 -89 -26t-27 -73q0 -22 8 -38t22.5 -28.5t33 -22t39.5 -18.5l55 -23q28 -12 52.5 -27t43 -36t29.5 -50.5
t11 -69.5z" />
    <glyph glyph-name="T" unicode="T" horiz-adv-x="446" 
d="M446 617q0 -9 -6 -14.5t-14 -5.5h-152v-577q0 -8 -6.5 -14t-14.5 -6h-39q-8 0 -14.5 6t-6.5 14v577h-152q-9 0 -15.5 5.5t-6.5 14.5v33q0 9 6.5 14.5t15.5 5.5h385q8 0 14 -5.5t6 -14.5v-33z" />
    <glyph glyph-name="U" unicode="U" horiz-adv-x="606" 
d="M511 201q0 -100 -52.5 -153t-157.5 -53q-110 0 -158 55.5t-48 150.5v449q0 9 6.5 14.5t14.5 5.5h38q8 0 14.5 -5.5t6.5 -14.5v-431q0 -72 27 -113.5t99 -41.5q28 0 51.5 5.5t41 21.5t27.5 43.5t10 72.5v443q0 9 6.5 14.5t14.5 5.5h38q8 0 14.5 -5.5t6.5 -14.5v-449z" />
    <glyph glyph-name="V" unicode="V" horiz-adv-x="553" 
d="M335 20q-2 -8 -10.5 -14t-16.5 -6h-56q-8 0 -16.5 6t-10.5 14l-187 629q-3 9 2 15t13 6h51q20 0 26 -20l130 -484q3 -9 5.5 -22.5l5.5 -28.5t5.5 -30.5l4.5 -28.5l11 58.5t11 51.5l130 484q5 20 24 20h43q8 0 13 -6t3 -14z" />
    <glyph glyph-name="W" unicode="W" horiz-adv-x="835" 
d="M656 20q-2 -8 -10.5 -14t-16.5 -6h-70q-10 0 -17.5 4.5t-9.5 15.5l-93 475q-5 29 -8 66l-5 63q-1 -12 -2 -28.5t-3 -34t-4.5 -35t-5.5 -32.5l-105 -474q-5 -20 -25 -20h-78q-9 0 -14 3.5t-7 14.5l-122 632q-2 8 2.5 14t12.5 6h56q8 0 13 -6t7 -14l80 -458
q3 -16 4.5 -35.5l3 -39t2.5 -37t3 -30.5q2 13 4.5 31.5t5.5 38.5t6.5 38.5t6.5 32.5l102 459q5 20 23 20h73q9 0 15 -6t8 -14l92 -458q3 -16 6 -35t5 -38.5t3.5 -37.5l2.5 -31q1 13 3.5 31t4.5 37t5 38t6 35l88 459q2 8 7.5 14t13.5 6h48q8 0 13 -6.5t3 -14.5z" />
    <glyph glyph-name="X" unicode="X" horiz-adv-x="572" 
d="M540 25q8 -11 3.5 -18t-14.5 -7h-64q-10 0 -15.5 4.5t-9.5 11.5l-158 273l-160 -273q-4 -7 -9.5 -11.5t-15.5 -4.5h-55q-10 0 -14.5 7t3.5 18l205 323l-182 297q-7 11 -3 18t14 7h61q10 0 15.5 -4.5t9.5 -11.5l138 -238l138 238q4 7 9.5 11.5t15.5 4.5h51q10 0 14 -7
t-3 -18l-178 -291z" />
    <glyph glyph-name="Y" unicode="Y" horiz-adv-x="495" 
d="M289 255v-235q0 -8 -6.5 -14t-14.5 -6h-38q-8 0 -14.5 6t-6.5 14v235l-183 396q-3 6 0.5 12.5t13.5 6.5h63q14 0 19 -12l102 -246q14 -32 19.5 -55.5t10.5 -47.5q4 24 9.5 46.5t19.5 57.5l96 243q5 14 21 14h59q7 0 11 -4.5t-1 -15.5z" />
    <glyph glyph-name="Z" unicode="Z" horiz-adv-x="499" 
d="M450 20q0 -8 -6 -14t-14 -6h-360q-8 0 -14 6t-6 14v41q0 8 3 15.5t6 12.5l273 472q8 13 18 23.5t19 18.5q-23 -6 -58 -6h-230q-9 0 -15.5 6t-6.5 14v33q0 9 6.5 14.5t15.5 5.5h338q8 0 14 -5.5t6 -14.5v-36q0 -8 -3 -16.5t-8 -16.5l-270 -468q-8 -15 -18 -26t-19 -18
q9 2 23 4t29 2h257q8 0 14 -6t6 -14v-35z" />
    <glyph glyph-name="bracketleft" unicode="[" horiz-adv-x="305" 
d="M265 -129q0 -22 -22 -22h-121q-22 0 -22 22v875q0 22 22 22h121q22 0 22 -22v-17q0 -21 -22 -21h-71v-799h71q22 0 22 -21v-17z" />
    <glyph glyph-name="backslash" unicode="\" horiz-adv-x="335" 
d="M309 -72q6 -22 -12 -22h-34q-18 0 -22 17l-215 746q-3 10 1 15t12 5h32q11 0 16 -4.5t7 -12.5z" />
    <glyph glyph-name="bracketright" unicode="]" horiz-adv-x="305" 
d="M205 -129q0 -22 -22 -22h-121q-22 0 -22 22v17q0 21 22 21h71v799h-71q-22 0 -22 21v17q0 22 22 22h121q22 0 22 -22v-875z" />
    <glyph glyph-name="asciicircum" unicode="^" horiz-adv-x="595" 
d="M532 309q4 -8 1 -16t-11 -12l-21 -10q-8 -4 -16 -2t-12 10l-175 346l-175 -346q-4 -8 -12 -10t-16 2l-21 10q-8 4 -11 12t1 16l200 388q5 11 18 11h35q5 0 11 -3t8 -8z" />
    <glyph glyph-name="underscore" unicode="_" horiz-adv-x="520" 
d="M510 -107q0 -21 -22 -21h-457q-21 0 -21 21v10q0 22 21 22h457q22 0 22 -22v-10z" />
    <glyph glyph-name="grave" unicode="`" horiz-adv-x="352" 
d="M278 578q-8 -15 -25 -7l-175 79q-8 4 -12 11t2 18l21 39q10 16 26 6l163 -103q17 -10 9 -26z" />
    <glyph glyph-name="a" unicode="a" horiz-adv-x="451" 
d="M298 238l-67 -3q-24 -1 -45 -5.5t-36 -15.5t-23.5 -30t-8.5 -49q0 -39 18 -57.5t50 -18.5q25 0 46 10t35.5 25t22.5 32.5t8 32.5v79zM388 20q3 -20 -16 -20h-41q-19 0 -22 18l-8 50q-24 -40 -60.5 -56.5t-76.5 -16.5q-58 0 -93 36.5t-35 103.5q0 42 13 71t33.5 46.5
t46.5 25.5t52 10l117 7v26q0 24 -3.5 41.5t-13.5 29t-28 17.5t-46 6q-31 0 -53 -6l-42 -11q-9 -2 -16 2t-9 13l-6 32q-3 20 14 24q20 5 52 11.5t64 6.5q57 0 89.5 -16.5t49.5 -42t21.5 -57t4.5 -61.5v-177q0 -20 0.5 -40t5.5 -43z" />
    <glyph glyph-name="b" unicode="b" horiz-adv-x="473" 
d="M343 240q0 55 -7 88.5t-18 53.5q-21 39 -67 39t-71.5 -46.5t-25.5 -136.5q0 -91 24.5 -134t73.5 -43q47 0 69 41.5t22 137.5zM428 239q0 -244 -157 -244q-39 0 -67 15.5t-50 52.5l-8 -43q-4 -20 -26 -20h-21q-8 0 -14.5 6t-6.5 14v668q0 9 6.5 14.5t14.5 5.5h36
q8 0 14.5 -5.5t6.5 -14.5v-272q39 71 112 71q32 0 62 -14t50 -40q13 -17 22 -35.5t15 -41.5t8.5 -51.5t2.5 -65.5z" />
    <glyph glyph-name="c" unicode="c" horiz-adv-x="371" 
d="M344 32q2 -8 -2 -15t-14 -10q-21 -7 -43 -9.5t-48 -2.5q-88 0 -141.5 64.5t-53.5 185.5q0 53 14.5 97.5t40.5 76.5t61.5 50t77.5 18q26 0 48.5 -5.5t36.5 -11.5q21 -10 15 -25l-10 -29q-2 -8 -8 -12.5t-17 0.5q-12 5 -29.5 9.5t-38.5 4.5q-47 0 -76.5 -46t-29.5 -127
q0 -176 115 -176q20 0 38 2.5t32 6.5q11 3 17 -2t8 -13z" />
    <glyph glyph-name="d" unicode="d" horiz-adv-x="473" 
d="M319 238q0 90 -25.5 136.5t-71.5 46.5t-67 -39q-11 -20 -18 -53.5t-7 -88.5q0 -96 22 -137.5t69 -41.5q49 0 73.5 43t24.5 134zM395 20q0 -8 -6.5 -14t-14.5 -6h-21q-22 0 -26 20l-8 43q-22 -37 -50 -52.5t-67 -15.5q-157 0 -157 244q0 37 2.5 65.5t8.5 51.5t15 41.5
t22 35.5q20 26 50 40t62 14q73 0 112 -71v272q0 9 6.5 14.5t14.5 5.5h36q8 0 14.5 -5.5t6.5 -14.5v-668z" />
    <glyph glyph-name="e" unicode="e" horiz-adv-x="447" 
d="M319 285q-1 25 -6 50t-16.5 44.5t-28.5 31.5t-42 12q-12 0 -27.5 -5t-30 -19.5t-26.5 -41.5t-16 -72h193zM401 242q0 -8 -6 -14.5t-14 -6.5h-255q3 -76 32 -116t97 -40q29 0 50.5 4.5t44.5 11.5q11 3 17 -1t9 -12l9 -25q6 -18 -13 -26q-20 -9 -46.5 -15.5t-69.5 -6.5
q-104 0 -158.5 63.5t-54.5 185.5q0 57 13 102t37 76.5t57.5 48t73.5 16.5q34 0 66 -11.5t57 -40t39.5 -75.5t14.5 -118z" />
    <glyph glyph-name="f" unicode="f" horiz-adv-x="277" 
d="M269 643q-5 -16 -23 -11q-8 2 -20.5 6.5t-22.5 4.5q-16 0 -25.5 -10t-9.5 -37v-114h77q8 0 14 -6.5t6 -14.5v-22q0 -8 -6 -14.5t-14 -6.5h-77v-398q0 -8 -6.5 -14t-14.5 -6h-36q-8 0 -14.5 6t-6.5 14v398h-55q-9 0 -14.5 6.5t-5.5 14.5v22q0 8 5.5 14.5t14.5 6.5h55v117
q0 62 31 88t78 26q12 0 33.5 -5.5t33.5 -10.5q8 -4 10.5 -11.5t0.5 -15.5z" />
    <glyph glyph-name="g" unicode="g" horiz-adv-x="426" 
d="M301 316q0 34 -7.5 56t-20.5 34t-30 16.5t-36 4.5t-36 -4.5t-30 -16.5t-20.5 -33.5t-7.5 -56.5q0 -36 7.5 -58.5t20.5 -34.5t30 -16.5t36 -4.5q18 0 35 4.5t30 17.5t21 35t8 57zM418 -47q0 -42 -17.5 -71.5t-45.5 -48t-63 -27t-69 -8.5q-35 0 -69 6.5t-62 22t-45 41.5
t-17 66q0 9 6.5 14.5t14.5 5.5l44 -1q18 0 21 -20q3 -21 13.5 -34t26 -20t34 -9t36.5 -2q22 0 42.5 5t36 14.5t25 23t9.5 31.5q0 32 -18.5 50t-60.5 18h-95q-45 0 -75.5 17.5t-30.5 57.5q0 27 13 47t31 37q-33 22 -53 58t-20 86q0 42 13 74t36.5 54.5t55.5 34t71 11.5
q17 0 31 -2.5t30 -2.5h113q9 0 14.5 -6.5t5.5 -14.5v-25q0 -17 -20 -19l-35 -3q17 -23 27.5 -49t10.5 -52q0 -81 -47.5 -127t-128.5 -46q-27 0 -51 6q-8 -8 -14 -16.5t-6 -18.5q0 -17 13 -23t45 -6h78q67 0 106.5 -34t39.5 -95z" />
    <glyph glyph-name="h" unicode="h" horiz-adv-x="494" 
d="M416 20q0 -8 -6.5 -14t-14.5 -6h-36q-8 0 -14.5 6t-6.5 14v324q0 40 -15.5 57.5t-48.5 17.5q-24 0 -45.5 -9.5t-37.5 -26.5t-25.5 -39.5t-9.5 -48.5v-275q0 -8 -6.5 -14t-14.5 -6h-36q-8 0 -14.5 6t-6.5 14v668q0 9 6.5 14.5t14.5 5.5h36q8 0 14.5 -5.5t6.5 -14.5v-269
q32 36 65.5 52t71.5 16q57 0 90 -34t33 -91v-342z" />
    <glyph glyph-name="i" unicode="i" horiz-adv-x="245" 
d="M161 20q0 -8 -6.5 -14t-14.5 -6h-36q-8 0 -14.5 6t-6.5 14v442q0 8 6.5 14t14.5 6h36q8 0 14.5 -6t6.5 -14v-442zM180 655q0 -24 -17 -41t-41 -17t-41 17t-17 41t17 41t41 17t41 -17t17 -41z" />
    <glyph glyph-name="j" unicode="j" horiz-adv-x="246" 
d="M162 -62q0 -44 -17 -73t-56 -50l-26 -14q-8 -5 -16 -2.5t-12 9.5l-16 28q-4 7 -3 14.5t9 12.5l14 8q15 9 24 17t13.5 18t6 23t1.5 30v503q0 8 6.5 14t14.5 6h36q8 0 14.5 -6t6.5 -14v-524zM184 655q0 -24 -17 -41t-41 -17t-41 17t-17 41t17 41t41 17t41 -17t17 -41z" />
    <glyph glyph-name="k" unicode="k" horiz-adv-x="429" 
d="M406 24q5 -8 2.5 -16t-13.5 -8h-61q-14 0 -24 17l-154 249v-246q0 -8 -6.5 -14t-14.5 -6h-36q-8 0 -14.5 6t-6.5 14v668q0 9 6.5 14.5t14.5 5.5h36q8 0 14.5 -5.5t6.5 -14.5v-413l126 192q4 6 10 10.5t16 4.5h54q11 0 14 -8t-3 -16l-136 -184z" />
    <glyph glyph-name="l" unicode="l" horiz-adv-x="251" 
d="M241 27q3 -15 -13 -21q-13 -5 -27.5 -8t-31.5 -3q-48 0 -69.5 21.5t-21.5 63.5v608q0 9 6.5 14.5t14.5 5.5h36q8 0 14.5 -5.5t6.5 -14.5v-588q0 -19 4 -29t21 -10q7 0 15 2t17 4q18 4 22 -13z" />
    <glyph glyph-name="m" unicode="m" horiz-adv-x="710" 
d="M632 20q0 -8 -6.5 -14t-14.5 -6h-38q-8 0 -14.5 6t-6.5 14v350q0 47 -46 47q-22 0 -42 -9t-35 -25.5t-24 -38.5t-9 -48v-276q0 -8 -6.5 -14t-14.5 -6h-38q-8 0 -14.5 6t-6.5 14v350q0 47 -47 47q-22 0 -42 -9t-35 -25.5t-23.5 -38.5t-8.5 -48v-276q0 -8 -6.5 -14
t-14.5 -6h-38q-8 0 -14.5 6t-6.5 14v442q0 9 6.5 14.5t14.5 5.5h22q19 0 23 -16l11 -48q21 25 54 47t73 22t68 -19.5t35 -54.5q31 37 64 55.5t72 18.5q16 0 35.5 -4t35.5 -15.5t27 -31.5t11 -52v-364z" />
    <glyph glyph-name="n" unicode="n" horiz-adv-x="496" 
d="M418 20q0 -8 -6.5 -14t-14.5 -6h-38q-8 0 -14.5 6t-6.5 14v324q0 40 -14.5 57.5t-47.5 17.5q-24 0 -45.5 -9.5t-37 -26.5t-24.5 -39.5t-9 -48.5v-275q0 -8 -6.5 -14t-14.5 -6h-38q-8 0 -14.5 6t-6.5 14v442q0 9 6.5 14.5t14.5 5.5h22q19 0 23 -16l11 -49q32 38 65.5 54
t72.5 16q57 0 90 -34t33 -91v-342z" />
    <glyph glyph-name="o" unicode="o" horiz-adv-x="466" 
d="M339 241q0 91 -27.5 135t-79.5 44t-79.5 -44t-27.5 -135q0 -93 27.5 -136.5t79.5 -43.5t79.5 43.5t27.5 136.5zM424 241q0 -116 -51 -181t-139 -65q-44 0 -79 17t-60.5 48.5t-39 77t-13.5 103.5q0 57 13.5 103t39 77.5t60.5 48.5t79 17q43 0 78.5 -17t60 -48.5t38 -77.5
t13.5 -103z" />
    <glyph glyph-name="p" unicode="p" horiz-adv-x="475" 
d="M345 240q0 55 -7 88.5t-18 53.5q-21 39 -67 39t-71.5 -46.5t-25.5 -136.5q0 -91 24.5 -134t73.5 -43q47 0 69 41.5t22 137.5zM430 239q0 -244 -157 -244q-39 0 -67 15t-48 50v-237q0 -9 -6.5 -14.5t-14.5 -5.5h-36q-8 0 -14.5 5.5t-6.5 14.5v639q0 8 6.5 14t14.5 6h21
q22 0 26 -20l10 -46q39 71 112 71q32 0 62 -14t50 -40q13 -17 22 -35.5t15 -41.5t8.5 -51.5t2.5 -65.5z" />
    <glyph glyph-name="q" unicode="q" horiz-adv-x="470" 
d="M319 238q0 90 -25.5 136.5t-71.5 46.5t-67 -39q-11 -20 -18 -53.5t-7 -88.5q0 -96 22 -137.5t69 -41.5q49 0 73.5 43t24.5 134zM395 -177q0 -9 -6.5 -14.5t-14.5 -5.5h-36q-8 0 -14.5 5.5t-6.5 14.5v237q-20 -35 -48 -50t-67 -15q-157 0 -157 244q0 37 2.5 65.5t8.5 51.5
t15 41.5t22 35.5q20 26 50 40t62 14q73 0 112 -71l10 46q4 20 26 20h21q8 0 14.5 -6t6.5 -14v-639z" />
    <glyph glyph-name="r" unicode="r" horiz-adv-x="324" 
d="M313 411q-2 -11 -9 -16.5t-20 -1.5l-26.5 7t-29.5 4q-11 0 -23 -7t-22 -22t-16.5 -38t-6.5 -56v-261q0 -8 -6.5 -14t-14.5 -6h-38q-8 0 -14.5 6t-6.5 14v442q0 9 6.5 14.5t14.5 5.5h23q16 0 21 -15l14 -54q21 35 49 54.5t63 19.5q24 0 40 -10t12 -25z" />
    <glyph glyph-name="s" unicode="s" horiz-adv-x="385" 
d="M343 130q0 -30 -11 -54.5t-31 -42.5t-49 -28t-65 -10q-32 0 -69 7t-64 21q-17 9 -11 27l9 30q3 11 10.5 14t15.5 -1q24 -12 52.5 -19.5t58.5 -7.5q38 0 55.5 17t17.5 48q0 23 -15 39t-38 30t-49.5 28t-49.5 31.5t-38 41t-15 56.5q0 58 41 94t112 36q35 0 59 -6t44 -15
q15 -8 9 -27l-9 -25q-6 -17 -25 -10q-15 6 -36.5 12t-44.5 6q-34 0 -52.5 -16t-18.5 -43q0 -21 15.5 -36.5t38.5 -29t49.5 -27.5t49.5 -33t38.5 -45t15.5 -62z" />
    <glyph glyph-name="t" unicode="t" horiz-adv-x="274" 
d="M260 28q2 -9 -1 -16t-14 -10t-25 -5t-30 -2q-100 0 -100 95v328h-55q-9 0 -14.5 6.5t-5.5 14.5v22q0 8 5.5 14.5t14.5 6.5h55v101q0 17 15 22l37 13q9 3 17.5 2t8.5 -13v-125h56q8 0 14 -6.5t6 -14.5v-22q0 -8 -6 -14.5t-14 -6.5h-56v-318q0 -39 36 -39q6 0 14.5 1
t16.5 3q17 3 21 -16z" />
    <glyph glyph-name="u" unicode="u" horiz-adv-x="490" 
d="M415 20q0 -8 -6.5 -14t-14.5 -6h-23q-15 0 -20 17l-13 52l-21 -23t-28.5 -24t-40 -19t-56.5 -8q-55 0 -87 32t-32 95v340q0 9 6.5 14.5t14.5 5.5h38q8 0 14.5 -5.5t6.5 -14.5v-330q0 -37 16 -53.5t45 -16.5q54 0 87.5 38.5t33.5 118.5v243q0 9 6.5 14.5t14.5 5.5h38
q8 0 14.5 -5.5t6.5 -14.5v-442z" />
    <glyph glyph-name="v" unicode="v" horiz-adv-x="423" 
d="M264 18q-5 -18 -23 -18h-63q-9 0 -13.5 3.5t-7.5 14.5l-128 438q-4 13 1.5 19.5t13.5 6.5h45q20 0 25 -20l86 -334q5 -17 8 -42.5t5 -44.5q2 18 5.5 44t8.5 43l82 335q4 19 24 19h45q8 0 13.5 -6t2.5 -17z" />
    <glyph glyph-name="w" unicode="w" horiz-adv-x="665" 
d="M533 18q-5 -18 -23 -18h-73q-9 0 -14 3.5t-7 14.5l-69 306q-5 23 -8 49.5l-6 53.5q-2 -27 -5.5 -53.5t-8.5 -49.5l-69 -306q-3 -18 -23 -18h-74q-9 0 -14 3.5t-7 14.5l-101 440q-2 11 3 17.5t13 6.5h47q19 0 23 -20l64 -314q5 -27 7.5 -54t4.5 -53q4 25 7.5 52.5
t9.5 53.5l71 316q4 19 24 19h58q20 0 25 -20l72 -315q6 -26 9.5 -53t6.5 -53l6 52.5t8 53.5l59 316q2 10 8.5 14.5t15.5 4.5h44q8 0 13 -6t3 -17z" />
    <glyph glyph-name="x" unicode="x" horiz-adv-x="435" 
d="M408 20q5 -8 1 -14t-12 -6h-53q-17 0 -25 14l-102 181l-106 -181q-8 -14 -25 -14h-50q-8 0 -12.5 5.5t1.5 14.5l151 232l-129 210q-5 9 -1 14.5t12 5.5h52q16 0 25 -16l88 -153l88 153q9 16 25 16h49q8 0 12.5 -5.5t-1.5 -14.5l-133 -205z" />
    <glyph glyph-name="y" unicode="y" horiz-adv-x="438" 
d="M263 -68q-11 -42 -34.5 -73t-61.5 -49l-21 -10q-7 -3 -14.5 -1t-11.5 10l-14 28q-3 6 0 15.5t10 12.5l15 7q29 14 43 39.5t23 60.5l17 65h-31q-19 0 -24 19l-130 406q-3 8 3 14t14 6h47q19 0 25 -20l97 -333q3 -11 5.5 -25l4.5 -26q2 11 6.5 30.5t9.5 38.5l82 316
q4 19 24 19h45q8 0 13.5 -6t3.5 -14z" />
    <glyph glyph-name="z" unicode="z" horiz-adv-x="386" 
d="M346 21q0 -8 -6 -14.5t-14 -6.5h-264q-11 0 -16.5 8t-5.5 22v23q0 7 2.5 13t5.5 11l193 311q6 10 11.5 18t10.5 13q-7 -2 -15.5 -2h-13.5h-160q-9 0 -14.5 6.5t-5.5 14.5v23q0 8 5.5 14.5t14.5 6.5h247q8 0 14 -6.5t6 -14.5v-31q0 -13 -7 -24l-184 -298l-15 -23t-14 -20
q8 1 18.5 1.5t18.5 0.5h168q8 0 14 -5t6 -13v-28z" />
    <glyph glyph-name="braceleft" unicode="{" horiz-adv-x="348" 
d="M298 -129q0 -22 -22 -22h-38q-19 0 -37.5 8t-33.5 24t-24.5 39.5t-9.5 53.5v203q0 25 -7 45.5t-18 35t-25 22.5t-28 10q-15 2 -15 20v20q0 19 16 22q30 5 53.5 34t23.5 78v179q0 30 10 53.5t25 39.5t33.5 24t36.5 8h38q22 0 22 -22v-17q0 -21 -22 -21h-22
q-16 0 -25.5 -6.5t-15 -18t-7 -25.5t-1.5 -29v-179q0 -34 -10 -57.5t-24 -38.5t-28.5 -22.5t-23.5 -9.5v-2q9 -1 23.5 -7.5t28.5 -21t24 -39t10 -61.5v-203q0 -15 1.5 -29t7 -25t15 -18t25.5 -7h22q22 0 22 -21v-17z" />
    <glyph glyph-name="bar" unicode="|" horiz-adv-x="256" 
d="M161 -230q0 -8 -6.5 -14t-14.5 -6h-24q-8 0 -14.5 6t-6.5 14v960q0 9 6.5 14.5t14.5 5.5h24q8 0 14.5 -5.5t6.5 -14.5v-960z" />
    <glyph glyph-name="braceright" unicode="}" horiz-adv-x="348" 
d="M298 310q0 -18 -15 -20q-14 -2 -28 -10t-25 -22.5t-18 -35t-7 -45.5v-203q0 -30 -9.5 -53.5t-24.5 -39.5t-33.5 -24t-37.5 -8h-38q-22 0 -22 22v17q0 21 22 21h22q16 0 25.5 7t14.5 18t7 25t2 29v203q0 37 10 61.5t24 39t28.5 21t23.5 7.5v2q-9 2 -23.5 9.5t-28.5 22.5
t-24 38.5t-10 57.5v179q0 15 -2 29t-7 25.5t-14.5 18t-25.5 6.5h-22q-22 0 -22 21v17q0 22 22 22h38q18 0 36.5 -8t33.5 -24t25 -39.5t10 -53.5v-179q0 -49 23.5 -78t53.5 -34q16 -3 16 -22v-20z" />
    <glyph glyph-name="asciitilde" unicode="~" horiz-adv-x="565" 
d="M497 327q11 -17 -4 -29q-29 -24 -58.5 -38.5t-76.5 -14.5q-32 0 -53 8.5t-39 18t-37.5 18t-47.5 8.5q-26 0 -42.5 -9.5t-32.5 -21.5q-7 -5 -15.5 -4t-14.5 10l-9 14q-5 8 -4.5 13.5t10.5 15.5q26 24 56.5 37.5t76.5 13.5q31 0 52 -8.5t39 -18t37.5 -18t47.5 -8.5
q25 0 42.5 9t31.5 20q7 5 16 6.5t14 -6.5z" />
    <glyph glyph-name="Adieresis" unicode="&#xc4;" 
d="M279 545q-5 19 -8.5 40.5l-6.5 41.5q-5 -44 -15 -82l-77 -290h187zM519 22q3 -9 -1.5 -15.5t-12.5 -6.5h-52q-8 0 -16.5 6t-10.5 14l-48 167h-224l-45 -167q-2 -8 -9 -14t-15 -6h-49q-8 0 -12.5 6.5t-1.5 15.5l184 628q3 11 11 15.5t16 4.5h63q8 0 16 -4.5t11 -15.5z
M226 783q0 -21 -13.5 -35t-34.5 -14q-19 0 -33 14t-14 35q0 20 14 33.5t32 13.5q21 0 35 -13.5t14 -33.5zM399 783q0 -21 -14 -35t-32 -14q-21 0 -35.5 14t-14.5 35q0 20 14 33.5t35 13.5q18 0 32.5 -13.5t14.5 -33.5z" />
    <glyph glyph-name="Aring" unicode="&#xc5;" 
d="M279 546q-4 14 -8 37t-7 38l-2.5 -17t-3.5 -20.5l-4 -20.5t-4 -17l-78 -291h187zM311 716q0 20 -13 35.5t-33 15.5t-33 -15.5t-13 -35.5t13 -35.5t33 -15.5t33 15.5t13 35.5zM519 22q3 -9 -1.5 -15.5t-12.5 -6.5h-52q-8 0 -16.5 6t-10.5 14l-48 167h-224l-45 -167
q-2 -8 -9 -14t-15 -6h-49q-8 0 -12.5 6.5t-1.5 15.5l189 631q-13 11 -20.5 27.5t-7.5 35.5q0 35 23.5 59t58.5 24t58.5 -24t23.5 -59q0 -39 -29 -63z" />
    <glyph glyph-name="Ccedilla" unicode="&#xc7;" horiz-adv-x="486" 
d="M440 46q4 -8 0.5 -14.5t-9.5 -9.5q-20 -10 -48 -18.5t-73 -8.5l-9 -37q22 0 36.5 -6t23 -16.5t12 -23.5t3.5 -26q0 -14 -6.5 -29t-18.5 -27t-30.5 -19.5t-42.5 -7.5q-18 0 -35 5t-31 12q-13 5 -8 20l9 24q4 11 15 5q25 -11 50 -11q14 0 25 8t11 22q0 15 -12.5 22t-25.5 7
q-8 0 -13 -0.5t-8 -0.5q-17 0 -12 17l18 66q-99 17 -152.5 104.5t-53.5 236.5q0 79 19 141.5t53 105.5t82 65.5t105 22.5q29 0 59 -5t56 -21q8 -5 10.5 -13t-2.5 -16l-16 -31q-9 -17 -27 -8q-17 8 -35.5 13.5t-41.5 5.5q-84 0 -128 -62t-44 -199q0 -71 12.5 -121.5t35 -82.5
t54 -47.5t68.5 -15.5q20 0 44.5 6.5t37.5 12.5q9 5 15.5 2t9.5 -9z" />
    <glyph glyph-name="Eacute" unicode="&#xc9;" horiz-adv-x="509" 
d="M454 20q0 -8 -6.5 -14t-14.5 -6h-312q-8 0 -14.5 6t-6.5 14v630q0 9 6.5 14.5t14.5 5.5h304q8 0 14.5 -5.5t6.5 -14.5v-33q0 -9 -5.5 -15.5t-15.5 -6.5h-244v-204h220q9 0 15 -6t6 -14v-31q0 -10 -6 -16t-15 -6h-220v-241h251q9 0 15.5 -6t6.5 -15v-36zM406 839
q6 -11 2 -18t-12 -11l-175 -79q-17 -8 -25 7l-9 17q-8 16 9 26l163 103q16 10 26 -6z" />
    <glyph glyph-name="Ntilde" unicode="&#xd1;" horiz-adv-x="641" 
d="M536 19q0 -8 -6.5 -13.5t-14.5 -5.5h-70q-16 0 -24 16l-212 473q-14 32 -24.5 65.5t-19.5 65.5q1 -15 3 -34t3.5 -38t2.5 -36.5t1 -29.5l2 -463q0 -8 -6.5 -13.5t-14.5 -5.5h-35q-8 0 -14.5 5.5t-6.5 13.5v632q0 10 6 14.5t15 4.5h76q17 0 23 -14l208 -473
q15 -34 24.5 -66t18.5 -58q-2 30 -6 67.5t-4 69.5l-2 455q0 8 6.5 13.5t14.5 5.5h35q8 0 14.5 -5.5t6.5 -13.5v-632zM475 817q8 -8 5 -15.5t-9 -13.5q-23 -23 -44.5 -33t-57.5 -10q-22 0 -36 5.5t-26 12t-25 12t-34 5.5q-20 0 -31 -5.5t-23 -16.5q-6 -5 -10.5 -3t-12.5 10
l-7 7q-7 7 -4.5 14t10.5 15q19 20 42 30.5t58 10.5q21 0 35 -5.5t26 -12t25.5 -12t34.5 -5.5q20 0 31 4.5t22 15.5q5 5 11 5.5t12 -6.5z" />
    <glyph glyph-name="Odieresis" unicode="&#xd6;" horiz-adv-x="576" 
d="M428 334q0 57 -6 107t-21.5 87t-42.5 58.5t-70 21.5q-48 0 -76 -24.5t-42 -63.5t-18 -88t-4 -98q0 -142 34 -205.5t106 -63.5q39 0 66 19t43.5 54t23.5 84.5t7 111.5zM515 333q0 -176 -58 -257t-168 -81q-112 0 -170 81t-58 257q0 175 58 258.5t170 83.5t169 -83.5
t57 -258.5zM251 783q0 -21 -13.5 -35t-34.5 -14q-19 0 -33 14t-14 35q0 20 14 33.5t32 13.5q21 0 35 -13.5t14 -33.5zM424 783q0 -21 -14 -35t-32 -14q-21 0 -35.5 14t-14.5 35q0 20 14 33.5t35 13.5q18 0 32.5 -13.5t14.5 -33.5z" />
    <glyph glyph-name="Udieresis" unicode="&#xdc;" horiz-adv-x="599" 
d="M511 201q0 -100 -52.5 -153t-157.5 -53q-110 0 -158 55.5t-48 150.5v449q0 9 6.5 14.5t14.5 5.5h38q8 0 14.5 -5.5t6.5 -14.5v-431q0 -72 27 -113.5t99 -41.5q28 0 51.5 5.5t41 21.5t27.5 43.5t10 72.5v443q0 9 6.5 14.5t14.5 5.5h38q8 0 14.5 -5.5t6.5 -14.5v-449z
M261 783q0 -21 -13.5 -35t-34.5 -14q-19 0 -33 14t-14 35q0 20 14 33.5t32 13.5q21 0 35 -13.5t14 -33.5zM434 783q0 -21 -14 -35t-32 -14q-21 0 -35.5 14t-14.5 35q0 20 14 33.5t35 13.5q18 0 32.5 -13.5t14.5 -33.5z" />
    <glyph glyph-name="aacute" unicode="&#xe1;" horiz-adv-x="454" 
d="M298 238l-67 -3q-24 -1 -45 -5.5t-36 -15.5t-23.5 -30t-8.5 -49q0 -39 18 -57.5t50 -18.5q25 0 46 10t35.5 25t22.5 32.5t8 32.5v79zM388 20q3 -20 -16 -20h-41q-19 0 -22 18l-8 50q-24 -40 -60.5 -56.5t-76.5 -16.5q-58 0 -93 36.5t-35 103.5q0 42 13 71t33.5 46.5
t46.5 25.5t52 10l117 7v26q0 24 -3.5 41.5t-13.5 29t-28 17.5t-46 6q-31 0 -53 -6l-42 -11q-9 -2 -16 2t-9 13l-6 32q-3 20 14 24q20 5 52 11.5t64 6.5q57 0 89.5 -16.5t49.5 -42t21.5 -57t4.5 -61.5v-177q0 -20 0.5 -40t5.5 -43zM354 679q6 -11 2 -18t-12 -11l-175 -79
q-17 -8 -25 7l-9 17q-8 16 9 26l163 103q16 10 26 -6z" />
    <glyph glyph-name="agrave" unicode="&#xe0;" horiz-adv-x="454" 
d="M298 238l-67 -3q-24 -1 -45 -5.5t-36 -15.5t-23.5 -30t-8.5 -49q0 -39 18 -57.5t50 -18.5q25 0 46 10t35.5 25t22.5 32.5t8 32.5v79zM388 20q3 -20 -16 -20h-41q-19 0 -22 18l-8 50q-24 -40 -60.5 -56.5t-76.5 -16.5q-58 0 -93 36.5t-35 103.5q0 42 13 71t33.5 46.5
t46.5 25.5t52 10l117 7v26q0 24 -3.5 41.5t-13.5 29t-28 17.5t-46 6q-31 0 -53 -6l-42 -11q-9 -2 -16 2t-9 13l-6 32q-3 20 14 24q20 5 52 11.5t64 6.5q57 0 89.5 -16.5t49.5 -42t21.5 -57t4.5 -61.5v-177q0 -20 0.5 -40t5.5 -43zM298 578q-8 -15 -25 -7l-175 79
q-8 4 -12 11t2 18l21 39q10 16 26 6l163 -103q17 -10 9 -26z" />
    <glyph glyph-name="acircumflex" unicode="&#xe2;" horiz-adv-x="454" 
d="M298 238l-67 -3q-24 -1 -45 -5.5t-36 -15.5t-23.5 -30t-8.5 -49q0 -39 18 -57.5t50 -18.5q25 0 46 10t35.5 25t22.5 32.5t8 32.5v79zM388 20q3 -20 -16 -20h-41q-19 0 -22 18l-8 50q-24 -40 -60.5 -56.5t-76.5 -16.5q-58 0 -93 36.5t-35 103.5q0 42 13 71t33.5 46.5
t46.5 25.5t52 10l117 7v26q0 24 -3.5 41.5t-13.5 29t-28 17.5t-46 6q-31 0 -53 -6l-42 -11q-9 -2 -16 2t-9 13l-6 32q-3 20 14 24q20 5 52 11.5t64 6.5q57 0 89.5 -16.5t49.5 -42t21.5 -57t4.5 -61.5v-177q0 -20 0.5 -40t5.5 -43zM351 585q-4 -5 -12.5 -7.5t-14.5 1.5
l-112 75l-106 -74q-6 -4 -14 -1.5t-12 7.5l-11 16q-9 12 4 23l125 100q8 7 18.5 7.5t19.5 -7.5l124 -98q6 -5 7 -12t-3 -12z" />
    <glyph glyph-name="adieresis" unicode="&#xe4;" horiz-adv-x="454" 
d="M298 238l-67 -3q-24 -1 -45 -5.5t-36 -15.5t-23.5 -30t-8.5 -49q0 -39 18 -57.5t50 -18.5q25 0 46 10t35.5 25t22.5 32.5t8 32.5v79zM388 20q3 -20 -16 -20h-41q-19 0 -22 18l-8 50q-24 -40 -60.5 -56.5t-76.5 -16.5q-58 0 -93 36.5t-35 103.5q0 42 13 71t33.5 46.5
t46.5 25.5t52 10l117 7v26q0 24 -3.5 41.5t-13.5 29t-28 17.5t-46 6q-31 0 -53 -6l-42 -11q-9 -2 -16 2t-9 13l-6 32q-3 20 14 24q20 5 52 11.5t64 6.5q57 0 89.5 -16.5t49.5 -42t21.5 -57t4.5 -61.5v-177q0 -20 0.5 -40t5.5 -43zM180 623q0 -21 -13.5 -35t-34.5 -14
q-19 0 -33 14t-14 35q0 20 14 33.5t32 13.5q21 0 35 -13.5t14 -33.5zM353 623q0 -21 -14 -35t-32 -14q-21 0 -35.5 14t-14.5 35q0 20 14 33.5t35 13.5q18 0 32.5 -13.5t14.5 -33.5z" />
    <glyph glyph-name="atilde" unicode="&#xe3;" horiz-adv-x="454" 
d="M298 238l-67 -3q-24 -1 -45 -5.5t-36 -15.5t-23.5 -30t-8.5 -49q0 -39 18 -57.5t50 -18.5q25 0 46 10t35.5 25t22.5 32.5t8 32.5v79zM388 20q3 -20 -16 -20h-41q-19 0 -22 18l-8 50q-24 -40 -60.5 -56.5t-76.5 -16.5q-58 0 -93 36.5t-35 103.5q0 42 13 71t33.5 46.5
t46.5 25.5t52 10l117 7v26q0 24 -3.5 41.5t-13.5 29t-28 17.5t-46 6q-31 0 -53 -6l-42 -11q-9 -2 -16 2t-9 13l-6 32q-3 20 14 24q20 5 52 11.5t64 6.5q57 0 89.5 -16.5t49.5 -42t21.5 -57t4.5 -61.5v-177q0 -20 0.5 -40t5.5 -43zM376 657q8 -8 5 -15.5t-9 -13.5
q-23 -23 -44.5 -33t-57.5 -10q-22 0 -36 5.5t-26 12t-25 12t-34 5.5q-20 0 -31 -5.5t-23 -16.5q-6 -5 -10.5 -3t-12.5 10l-7 7q-7 7 -4.5 14t10.5 15q19 20 42 30.5t58 10.5q21 0 35 -5.5t26 -12t25.5 -12t34.5 -5.5q20 0 31 4.5t22 15.5q5 5 11 5.5t12 -6.5z" />
    <glyph glyph-name="aring" unicode="&#xe5;" horiz-adv-x="454" 
d="M298 238l-67 -3q-24 -1 -45 -5.5t-36 -15.5t-23.5 -30t-8.5 -49q0 -39 18 -57.5t50 -18.5q25 0 46 10t35.5 25t22.5 32.5t8 32.5v79zM276 659q0 20 -13 35.5t-33 15.5t-33 -15.5t-13 -35.5t13 -35.5t33 -15.5t33 15.5t13 35.5zM388 20q3 -20 -16 -20h-41q-19 0 -22 18
l-8 50q-24 -40 -60.5 -56.5t-76.5 -16.5q-58 0 -93 36.5t-35 103.5q0 42 13 71t33.5 46.5t46.5 25.5t52 10l117 7v26q0 24 -3.5 41.5t-13.5 29t-28 17.5t-46 6q-31 0 -53 -6l-42 -11q-9 -2 -16 2t-9 13l-6 32q-3 20 14 24q20 5 52 11.5t64 6.5q57 0 89.5 -16.5t49.5 -42
t21.5 -57t4.5 -61.5v-177q0 -20 0.5 -40t5.5 -43zM312 659q0 -35 -23.5 -59t-58.5 -24t-58.5 24t-23.5 59t23.5 59t58.5 24t58.5 -24t23.5 -59z" />
    <glyph glyph-name="ccedilla" unicode="&#xe7;" horiz-adv-x="371" 
d="M344 32q2 -8 -2 -15t-14 -10q-39 -12 -85 -12l-9 -37q22 0 36.5 -6t23 -16.5t12 -23.5t3.5 -26q0 -14 -6.5 -29t-18.5 -27t-30.5 -19.5t-42.5 -7.5q-18 0 -35 5t-31 12q-13 5 -8 20l9 24q4 11 15 5q25 -11 50 -11q14 0 25 8t11 22q0 15 -12.5 22t-25.5 7q-8 0 -13 -0.5
t-8 -0.5q-17 0 -12 17l18 66q-70 15 -111 77.5t-41 168.5q0 53 14.5 97.5t40.5 76.5t61.5 50t77.5 18q26 0 48.5 -5.5t36.5 -11.5q21 -10 15 -25l-10 -29q-2 -8 -8 -12.5t-17 0.5q-12 5 -29.5 9.5t-38.5 4.5q-47 0 -76.5 -46t-29.5 -127q0 -176 115 -176q20 0 38 2.5t32 6.5
q11 3 17 -2t8 -13z" />
    <glyph glyph-name="eacute" unicode="&#xe9;" horiz-adv-x="457" 
d="M319 285q-1 25 -6 50t-16.5 44.5t-28.5 31.5t-42 12q-12 0 -27.5 -5t-30 -19.5t-26.5 -41.5t-16 -72h193zM401 242q0 -8 -6 -14.5t-14 -6.5h-255q3 -76 32 -116t97 -40q29 0 50.5 4.5t44.5 11.5q11 3 17 -1t9 -12l9 -25q6 -18 -13 -26q-20 -9 -46.5 -15.5t-69.5 -6.5
q-104 0 -158.5 63.5t-54.5 185.5q0 57 13 102t37 76.5t57.5 48t73.5 16.5q34 0 66 -11.5t57 -40t39.5 -75.5t14.5 -118zM357 679q6 -11 2 -18t-12 -11l-175 -79q-17 -8 -25 7l-9 17q-8 16 9 26l163 103q16 10 26 -6z" />
    <glyph glyph-name="egrave" unicode="&#xe8;" horiz-adv-x="457" 
d="M319 285q-1 25 -6 50t-16.5 44.5t-28.5 31.5t-42 12q-12 0 -27.5 -5t-30 -19.5t-26.5 -41.5t-16 -72h193zM401 242q0 -8 -6 -14.5t-14 -6.5h-255q3 -76 32 -116t97 -40q29 0 50.5 4.5t44.5 11.5q11 3 17 -1t9 -12l9 -25q6 -18 -13 -26q-20 -9 -46.5 -15.5t-69.5 -6.5
q-104 0 -158.5 63.5t-54.5 185.5q0 57 13 102t37 76.5t57.5 48t73.5 16.5q34 0 66 -11.5t57 -40t39.5 -75.5t14.5 -118zM301 578q-8 -15 -25 -7l-175 79q-8 4 -12 11t2 18l21 39q10 16 26 6l163 -103q17 -10 9 -26z" />
    <glyph glyph-name="ecircumflex" unicode="&#xea;" horiz-adv-x="457" 
d="M319 285q-1 25 -6 50t-16.5 44.5t-28.5 31.5t-42 12q-12 0 -27.5 -5t-30 -19.5t-26.5 -41.5t-16 -72h193zM401 242q0 -8 -6 -14.5t-14 -6.5h-255q3 -76 32 -116t97 -40q29 0 50.5 4.5t44.5 11.5q11 3 17 -1t9 -12l9 -25q6 -18 -13 -26q-20 -9 -46.5 -15.5t-69.5 -6.5
q-104 0 -158.5 63.5t-54.5 185.5q0 57 13 102t37 76.5t57.5 48t73.5 16.5q34 0 66 -11.5t57 -40t39.5 -75.5t14.5 -118zM367 585q-4 -5 -12.5 -7.5t-14.5 1.5l-112 75l-106 -74q-6 -4 -14 -1.5t-12 7.5l-11 16q-9 12 4 23l125 100q8 7 18.5 7.5t19.5 -7.5l124 -98
q6 -5 7 -12t-3 -12z" />
    <glyph glyph-name="edieresis" unicode="&#xeb;" horiz-adv-x="457" 
d="M319 285q-1 25 -6 50t-16.5 44.5t-28.5 31.5t-42 12q-12 0 -27.5 -5t-30 -19.5t-26.5 -41.5t-16 -72h193zM401 242q0 -8 -6 -14.5t-14 -6.5h-255q3 -76 32 -116t97 -40q29 0 50.5 4.5t44.5 11.5q11 3 17 -1t9 -12l9 -25q6 -18 -13 -26q-20 -9 -46.5 -15.5t-69.5 -6.5
q-104 0 -158.5 63.5t-54.5 185.5q0 57 13 102t37 76.5t57.5 48t73.5 16.5q34 0 66 -11.5t57 -40t39.5 -75.5t14.5 -118zM188 623q0 -21 -13.5 -35t-34.5 -14q-19 0 -33 14t-14 35q0 20 14 33.5t32 13.5q21 0 35 -13.5t14 -33.5zM361 623q0 -21 -14 -35t-32 -14
q-21 0 -35.5 14t-14.5 35q0 20 14 33.5t35 13.5q18 0 32.5 -13.5t14.5 -33.5z" />
    <glyph glyph-name="iacute" unicode="&#xed;" horiz-adv-x="248" 
d="M162 20q0 -8 -6.5 -14t-14.5 -6h-36q-8 0 -14.5 6t-6.5 14v442q0 8 6.5 14t14.5 6h36q8 0 14.5 -6t6.5 -14v-442zM250 679q6 -11 2 -18t-12 -11l-175 -79q-17 -8 -25 7l-9 17q-8 16 9 26l163 103q16 10 26 -6z" />
    <glyph glyph-name="igrave" unicode="&#xec;" horiz-adv-x="248" 
d="M162 20q0 -8 -6.5 -14t-14.5 -6h-36q-8 0 -14.5 6t-6.5 14v442q0 8 6.5 14t14.5 6h36q8 0 14.5 -6t6.5 -14v-442zM188 578q-8 -15 -25 -7l-175 79q-8 4 -12 11t2 18l21 39q10 16 26 6l163 -103q17 -10 9 -26z" />
    <glyph glyph-name="icircumflex" unicode="&#xee;" horiz-adv-x="248" 
d="M162 20q0 -8 -6.5 -14t-14.5 -6h-36q-8 0 -14.5 6t-6.5 14v442q0 8 6.5 14t14.5 6h36q8 0 14.5 -6t6.5 -14v-442zM250 585q-4 -5 -12.5 -7.5t-14.5 1.5l-112 75l-106 -74q-6 -4 -14 -1.5t-12 7.5l-11 16q-9 12 4 23l125 100q8 7 18.5 7.5t19.5 -7.5l124 -98q6 -5 7 -12
t-3 -12z" />
    <glyph glyph-name="idieresis" unicode="&#xef;" horiz-adv-x="248" 
d="M162 20q0 -8 -6.5 -14t-14.5 -6h-36q-8 0 -14.5 6t-6.5 14v442q0 8 6.5 14t14.5 6h36q8 0 14.5 -6t6.5 -14v-442zM80 623q0 -21 -13.5 -35t-34.5 -14q-19 0 -33 14t-14 35q0 20 14 33.5t32 13.5q21 0 35 -13.5t14 -33.5zM253 623q0 -21 -14 -35t-32 -14q-21 0 -35.5 14
t-14.5 35q0 20 14 33.5t35 13.5q18 0 32.5 -13.5t14.5 -33.5z" />
    <glyph glyph-name="ntilde" unicode="&#xf1;" horiz-adv-x="492" 
d="M418 20q0 -8 -6.5 -14t-14.5 -6h-38q-8 0 -14.5 6t-6.5 14v324q0 40 -14.5 57.5t-47.5 17.5q-24 0 -45.5 -9.5t-37 -26.5t-24.5 -39.5t-9 -48.5v-275q0 -8 -6.5 -14t-14.5 -6h-38q-8 0 -14.5 6t-6.5 14v442q0 9 6.5 14.5t14.5 5.5h22q19 0 23 -16l11 -49q32 38 65.5 54
t72.5 16q57 0 90 -34t33 -91v-342zM406 657q8 -8 5 -15.5t-9 -13.5q-23 -23 -44.5 -33t-57.5 -10q-22 0 -36 5.5t-26 12t-25 12t-34 5.5q-20 0 -31 -5.5t-23 -16.5q-6 -5 -10.5 -3t-12.5 10l-7 7q-7 7 -4.5 14t10.5 15q19 20 42 30.5t58 10.5q21 0 35 -5.5t26 -12t25.5 -12
t34.5 -5.5q20 0 31 4.5t22 15.5q5 5 11 5.5t12 -6.5z" />
    <glyph glyph-name="oacute" unicode="&#xf3;" horiz-adv-x="470" 
d="M339 241q0 91 -27.5 135t-79.5 44t-79.5 -44t-27.5 -135q0 -93 27.5 -136.5t79.5 -43.5t79.5 43.5t27.5 136.5zM424 241q0 -116 -51 -181t-139 -65q-44 0 -79 17t-60.5 48.5t-39 77t-13.5 103.5q0 57 13.5 103t39 77.5t60.5 48.5t79 17q43 0 78.5 -17t60 -48.5t38 -77.5
t13.5 -103zM371 679q6 -11 2 -18t-12 -11l-175 -79q-17 -8 -25 7l-9 17q-8 16 9 26l163 103q16 10 26 -6z" />
    <glyph glyph-name="ograve" unicode="&#xf2;" horiz-adv-x="470" 
d="M339 241q0 91 -27.5 135t-79.5 44t-79.5 -44t-27.5 -135q0 -93 27.5 -136.5t79.5 -43.5t79.5 43.5t27.5 136.5zM424 241q0 -116 -51 -181t-139 -65q-44 0 -79 17t-60.5 48.5t-39 77t-13.5 103.5q0 57 13.5 103t39 77.5t60.5 48.5t79 17q43 0 78.5 -17t60 -48.5t38 -77.5
t13.5 -103zM318 578q-8 -15 -25 -7l-175 79q-8 4 -12 11t2 18l21 39q10 16 26 6l163 -103q17 -10 9 -26z" />
    <glyph glyph-name="ocircumflex" unicode="&#xf4;" horiz-adv-x="470" 
d="M339 241q0 91 -27.5 135t-79.5 44t-79.5 -44t-27.5 -135q0 -93 27.5 -136.5t79.5 -43.5t79.5 43.5t27.5 136.5zM424 241q0 -116 -51 -181t-139 -65q-44 0 -79 17t-60.5 48.5t-39 77t-13.5 103.5q0 57 13.5 103t39 77.5t60.5 48.5t79 17q43 0 78.5 -17t60 -48.5t38 -77.5
t13.5 -103zM371 585q-4 -5 -12.5 -7.5t-14.5 1.5l-112 75l-106 -74q-6 -4 -14 -1.5t-12 7.5l-11 16q-9 12 4 23l125 100q8 7 18.5 7.5t19.5 -7.5l124 -98q6 -5 7 -12t-3 -12z" />
    <glyph glyph-name="odieresis" unicode="&#xf6;" horiz-adv-x="470" 
d="M339 241q0 91 -27.5 135t-79.5 44t-79.5 -44t-27.5 -135q0 -93 27.5 -136.5t79.5 -43.5t79.5 43.5t27.5 136.5zM424 241q0 -116 -51 -181t-139 -65q-44 0 -79 17t-60.5 48.5t-39 77t-13.5 103.5q0 57 13.5 103t39 77.5t60.5 48.5t79 17q43 0 78.5 -17t60 -48.5t38 -77.5
t13.5 -103zM197 623q0 -21 -13.5 -35t-34.5 -14q-19 0 -33 14t-14 35q0 20 14 33.5t32 13.5q21 0 35 -13.5t14 -33.5zM370 623q0 -21 -14 -35t-32 -14q-21 0 -35.5 14t-14.5 35q0 20 14 33.5t35 13.5q18 0 32.5 -13.5t14.5 -33.5z" />
    <glyph glyph-name="otilde" unicode="&#xf5;" horiz-adv-x="470" 
d="M339 241q0 91 -27.5 135t-79.5 44t-79.5 -44t-27.5 -135q0 -93 27.5 -136.5t79.5 -43.5t79.5 43.5t27.5 136.5zM424 241q0 -116 -51 -181t-139 -65q-44 0 -79 17t-60.5 48.5t-39 77t-13.5 103.5q0 57 13.5 103t39 77.5t60.5 48.5t79 17q43 0 78.5 -17t60 -48.5t38 -77.5
t13.5 -103zM395 657q8 -8 5 -15.5t-9 -13.5q-23 -23 -44.5 -33t-57.5 -10q-22 0 -36 5.5t-26 12t-25 12t-34 5.5q-20 0 -31 -5.5t-23 -16.5q-6 -5 -10.5 -3t-12.5 10l-7 7q-7 7 -4.5 14t10.5 15q19 20 42 30.5t58 10.5q21 0 35 -5.5t26 -12t25.5 -12t34.5 -5.5q20 0 31 4.5
t22 15.5q5 5 11 5.5t12 -6.5z" />
    <glyph glyph-name="uacute" unicode="&#xfa;" horiz-adv-x="486" 
d="M415 20q0 -8 -6.5 -14t-14.5 -6h-23q-15 0 -20 17l-13 52l-21 -23t-28.5 -24t-40 -19t-56.5 -8q-55 0 -87 32t-32 95v340q0 9 6.5 14.5t14.5 5.5h38q8 0 14.5 -5.5t6.5 -14.5v-330q0 -37 16 -53.5t45 -16.5q54 0 87.5 38.5t33.5 118.5v243q0 9 6.5 14.5t14.5 5.5h38
q8 0 14.5 -5.5t6.5 -14.5v-442zM361 679q6 -11 2 -18t-12 -11l-175 -79q-17 -8 -25 7l-9 17q-8 16 9 26l163 103q16 10 26 -6z" />
    <glyph glyph-name="ugrave" unicode="&#xf9;" horiz-adv-x="486" 
d="M415 20q0 -8 -6.5 -14t-14.5 -6h-23q-15 0 -20 17l-13 52l-21 -23t-28.5 -24t-40 -19t-56.5 -8q-55 0 -87 32t-32 95v340q0 9 6.5 14.5t14.5 5.5h38q8 0 14.5 -5.5t6.5 -14.5v-330q0 -37 16 -53.5t45 -16.5q54 0 87.5 38.5t33.5 118.5v243q0 9 6.5 14.5t14.5 5.5h38
q8 0 14.5 -5.5t6.5 -14.5v-442zM313 578q-8 -15 -25 -7l-175 79q-8 4 -12 11t2 18l21 39q10 16 26 6l163 -103q17 -10 9 -26z" />
    <glyph glyph-name="ucircumflex" unicode="&#xfb;" horiz-adv-x="486" 
d="M415 20q0 -8 -6.5 -14t-14.5 -6h-23q-15 0 -20 17l-13 52l-21 -23t-28.5 -24t-40 -19t-56.5 -8q-55 0 -87 32t-32 95v340q0 9 6.5 14.5t14.5 5.5h38q8 0 14.5 -5.5t6.5 -14.5v-330q0 -37 16 -53.5t45 -16.5q54 0 87.5 38.5t33.5 118.5v243q0 9 6.5 14.5t14.5 5.5h38
q8 0 14.5 -5.5t6.5 -14.5v-442zM376 585q-4 -5 -12.5 -7.5t-14.5 1.5l-112 75l-106 -74q-6 -4 -14 -1.5t-12 7.5l-11 16q-9 12 4 23l125 100q8 7 18.5 7.5t19.5 -7.5l124 -98q6 -5 7 -12t-3 -12z" />
    <glyph glyph-name="udieresis" unicode="&#xfc;" horiz-adv-x="486" 
d="M415 20q0 -8 -6.5 -14t-14.5 -6h-23q-15 0 -20 17l-13 52l-21 -23t-28.5 -24t-40 -19t-56.5 -8q-55 0 -87 32t-32 95v340q0 9 6.5 14.5t14.5 5.5h38q8 0 14.5 -5.5t6.5 -14.5v-330q0 -37 16 -53.5t45 -16.5q54 0 87.5 38.5t33.5 118.5v243q0 9 6.5 14.5t14.5 5.5h38
q8 0 14.5 -5.5t6.5 -14.5v-442zM203 623q0 -21 -13.5 -35t-34.5 -14q-19 0 -33 14t-14 35q0 20 14 33.5t32 13.5q21 0 35 -13.5t14 -33.5zM376 623q0 -21 -14 -35t-32 -14q-21 0 -35.5 14t-14.5 35q0 20 14 33.5t35 13.5q18 0 32.5 -13.5t14.5 -33.5z" />
    <glyph glyph-name="dagger" unicode="&#x2020;" 
d="M480 420q0 -8 -5.5 -14.5t-14.5 -6.5h-155v-476q0 -8 -6.5 -14t-14.5 -6h-38q-8 0 -14.5 6t-6.5 14v476h-155q-9 0 -14.5 6.5t-5.5 14.5v25q0 8 5.5 14.5t14.5 6.5h155v184q0 9 6.5 14.5t14.5 5.5h38q8 0 14.5 -5.5t6.5 -14.5v-184h155q9 0 14.5 -6.5t5.5 -14.5v-25z" />
    <glyph glyph-name="degree" unicode="&#xb0;" horiz-adv-x="399" 
d="M270 555q0 45 -14.5 74.5t-56.5 29.5q-20 0 -33 -8t-21 -21.5t-11.5 -31.5t-3.5 -38q0 -49 14 -77.5t54 -28.5q44 0 58 28.5t14 72.5zM339 551q0 -29 -8 -56t-25.5 -48.5t-44.5 -34.5t-65 -13q-67 0 -101.5 44.5t-34.5 113.5q0 32 9 60.5t26 49.5t43 33.5t59 12.5
q66 0 104 -42.5t38 -119.5z" />
    <glyph glyph-name="cent" unicode="&#xa2;" horiz-adv-x="416" 
d="M220 410q-34 -16 -56.5 -58.5t-22.5 -106.5q0 -69 21 -110.5t58 -56.5v332zM368 32q2 -8 -2 -15t-14 -10q-16 -5 -32.5 -7.5t-34.5 -3.5v-67q0 -8 -6.5 -14t-14.5 -6h-23q-8 0 -14.5 6t-6.5 14v70q-72 14 -118 77t-46 169q0 46 12.5 86t35 71t52 51.5t64.5 28.5v72
q0 9 6.5 14.5t14.5 5.5h23q8 0 14.5 -5.5t6.5 -14.5v-68q19 -2 34 -6.5t26 -9.5q21 -10 15 -25l-10 -29q-2 -8 -8 -12.5t-17 0.5l-18 6.5t-22 5.5v-346q28 1 51 8q11 3 17 -2t8 -13z" />
    <glyph glyph-name="sterling" unicode="&#xa3;" horiz-adv-x="501" 
d="M446 20q0 -8 -6 -14t-14 -6h-315q-11 0 -16.5 8t-5.5 22v25q0 7 2.5 13t5.5 11q19 32 34.5 74.5t15.5 110.5v56h-58q-9 0 -14.5 6.5t-5.5 14.5v22q0 8 5.5 14.5t14.5 6.5h58v75q0 36 5 71t22.5 62.5t50 44t87.5 16.5q32 0 60 -5t48 -10q17 -4 14 -24l-6 -32
q-2 -8 -9 -12.5t-16 -2.5l-39.5 9.5t-47.5 4.5q-54 0 -72.5 -25.5t-18.5 -80.5v-91h124q8 0 14 -6.5t6 -14.5v-22q0 -8 -6 -14.5t-14 -6.5h-124v-54q0 -68 -14.5 -114t-39.5 -78h255q8 0 14 -6t6 -14v-34z" />
    <glyph glyph-name="section" unicode="&#xa7;" horiz-adv-x="448" 
d="M316 284q0 17 -4 30.5t-16 26.5t-35 28t-63 35q-14 -2 -26.5 -9.5t-21.5 -19.5t-14 -27t-5 -31q0 -15 7 -27.5t23 -25t41.5 -27l62.5 -34.5q26 8 38.5 30.5t12.5 50.5zM400 278q0 -30 -17 -62.5t-60 -58.5q21 -20 31.5 -45.5t10.5 -62.5q0 -28 -10 -54t-31.5 -47
t-55 -33.5t-79.5 -13.5q-29 -1 -56 4t-47 10q-19 5 -15 25l6 31q2 11 9 15.5t18 0.5q16 -5 36.5 -10t46.5 -5q28 0 46.5 7t28.5 17.5t14 23.5t4 26q0 31 -17.5 51.5t-43 37t-55 31.5t-55 35t-42.5 47.5t-17 69.5t23.5 75.5t65.5 50.5q-30 26 -41.5 52t-11.5 56q0 24 8 49.5
t26.5 46t48 33.5t73.5 13q30 0 52.5 -5.5t39.5 -10.5q7 -2 11 -8.5t1 -17.5l-7 -24q-3 -9 -7.5 -12t-15.5 -1q-15 3 -34 7.5t-36 4.5q-23 0 -38.5 -6t-24.5 -16t-13 -22.5t-4 -25.5q0 -24 17.5 -41.5t43.5 -33l56 -32.5t56 -40t43.5 -54.5t17.5 -77.5z" />
    <glyph glyph-name="bullet" unicode="&#x2022;" horiz-adv-x="472" 
d="M370 318q0 -28 -10.5 -52.5t-28.5 -43t-42.5 -29.5t-52.5 -11t-52.5 11t-42.5 29.5t-28.5 43t-10.5 52.5t10.5 52.5t28.5 43t42.5 29.5t52.5 11t52.5 -11t42.5 -29.5t28.5 -43t10.5 -52.5z" />
    <glyph glyph-name="paragraph" unicode="&#xb6;" horiz-adv-x="530" 
d="M450 -129q0 -9 -6.5 -14.5t-14.5 -5.5h-32q-8 0 -14.5 5.5t-6.5 14.5v733h-78v-733q0 -9 -6.5 -14.5t-14.5 -5.5h-32q-8 0 -14.5 5.5t-6.5 14.5v406q-37 0 -69 14.5t-56 39.5t-37.5 59t-13.5 73q0 98 50.5 152.5t144.5 54.5h186q8 0 14.5 -5.5t6.5 -14.5v-779z" />
    <glyph glyph-name="germandbls" unicode="&#xdf;" horiz-adv-x="515" 
d="M498 135q0 -62 -39 -101t-105 -39q-23 0 -49.5 3.5t-49.5 11.5q-9 3 -11.5 10.5t-0.5 16.5l7 31q2 11 10 13.5t16 -0.5q16 -5 38 -9t36 -4q34 0 51.5 19t17.5 49q0 27 -17 46.5t-42 36.5l-41 28q-15 10 -29.5 21.5t-25 25t-17 30t-6.5 38.5t5.5 39t14 30.5t19 24.5
t21.5 21q19 17 34 36t15 50q0 33 -24 56.5t-68 23.5q-48 0 -74 -26t-26 -83v-514q0 -8 -6.5 -14t-14.5 -6h-36q-8 0 -14.5 6t-6.5 14v398h-55q-9 0 -14.5 6.5t-5.5 14.5v22q0 8 5.5 14.5t14.5 6.5h55v55q0 88 47.5 131t132.5 43q36 0 66 -9t52 -27t34.5 -44t12.5 -60
q0 -47 -17 -75t-36 -47l-38 -36.5t-17 -41.5q0 -20 16.5 -34.5t39.5 -30.5l40 -27q16 -11 31.5 -25t27.5 -31t19 -39t7 -49z" />
    <glyph glyph-name="registered" unicode="&#xae;" horiz-adv-x="836" 
d="M485 420q0 32 -21.5 45t-60.5 13h-37v-121h36q49 0 66 15t17 48zM555 168q4 -7 1 -14t-14 -7h-34q-11 0 -15 7l-13 23l-14 25l-35 55t-31 40q-9 11 -22 11h-12v-141q0 -8 -5 -13.5t-13 -5.5h-23q-8 0 -13.5 5.5t-5.5 13.5v341q0 8 5.5 13t13.5 5h96q64 0 95 -31.5
t31 -73.5q0 -40 -23.5 -71t-74.5 -33q14 -8 43 -48.5t63 -100.5zM698 335q0 62 -22 115t-59.5 92t-89 61.5t-109.5 22.5q-59 0 -110 -22.5t-88.5 -61.5t-59.5 -92t-22 -115t22 -115t59.5 -92t88.5 -61.5t110 -22.5q58 0 109.5 22.5t89 61.5t59.5 92t22 115zM758 335
q0 -73 -27 -135t-73.5 -107.5t-108.5 -71.5t-131 -26q-70 0 -131.5 26t-108 71.5t-73.5 107.5t-27 135t27 135t73.5 107.5t108 71.5t131.5 26q69 0 131 -26t108.5 -71.5t73.5 -107.5t27 -135z" />
    <glyph glyph-name="copyright" unicode="&#xa9;" horiz-adv-x="836" 
d="M523 165q3 -13 -13 -20q-32 -11 -75 -11q-74 0 -117.5 50t-43.5 153q0 45 12 81t33 61.5t50.5 39.5t64.5 14q21 0 40 -4.5t30 -9.5q17 -9 13 -21l-8 -24q-2 -6 -7 -10t-15 -1q-11 5 -24 7.5t-31 2.5q-40 0 -63.5 -33.5t-23.5 -102.5q0 -75 24.5 -108.5t69.5 -33.5
q17 0 31 3t27 5q9 2 14 -2t7 -11zM698 335q0 62 -22 115t-59.5 92t-89 61.5t-109.5 22.5q-59 0 -110 -22.5t-88.5 -61.5t-59.5 -92t-22 -115t22 -115t59.5 -92t88.5 -61.5t110 -22.5q58 0 109.5 22.5t89 61.5t59.5 92t22 115zM758 335q0 -73 -27 -135t-73.5 -107.5
t-108.5 -71.5t-131 -26q-70 0 -131.5 26t-108 71.5t-73.5 107.5t-27 135t27 135t73.5 107.5t108 71.5t131.5 26q69 0 131 -26t108.5 -71.5t73.5 -107.5t27 -135z" />
    <glyph glyph-name="trademark" unicode="&#x2122;" horiz-adv-x="713" 
d="M266 667q0 -8 -5 -11.5t-12 -3.5h-75v-286q0 -7 -5 -11.5t-12 -4.5h-28q-16 0 -16 16v286h-76q-17 0 -17 15v24q0 17 17 17h212q7 0 12 -4.5t5 -12.5v-24zM648 365q0 -7 -2 -11t-10 -4h-39q-12 0 -14 15l-14 237l-3 53q-2 -14 -3.5 -28t-4.5 -25l-54 -200q-4 -15 -15 -15
h-46q-12 0 -16 15l-51 200q-2 10 -4 26.5t-4 26.5q0 -11 -1 -26.5t-2 -26.5l-15 -237q-2 -15 -12 -15h-34q-6 0 -10.5 4.5t-3.5 12.5l34 324q2 17 17 17h52q5 0 9.5 -4.5t6.5 -10.5l53 -207q2 -10 3.5 -25.5t2.5 -27.5l2 31t3 22l54 207q2 6 6 10.5t10 4.5h55q15 0 17 -17z
" />
    <glyph glyph-name="acute" unicode="&#xb4;" horiz-adv-x="352" 
d="M281 679q6 -11 2 -18t-12 -11l-175 -79q-17 -8 -25 7l-9 17q-8 16 9 26l163 103q16 10 26 -6z" />
    <glyph glyph-name="dieresis" unicode="&#xa8;" horiz-adv-x="520" 
d="M205 623q0 -21 -13.5 -35t-34.5 -14q-19 0 -33 14t-14 35q0 20 14 33.5t32 13.5q21 0 35 -13.5t14 -33.5zM378 623q0 -21 -14 -35t-32 -14q-21 0 -35.5 14t-14.5 35q0 20 14 33.5t35 13.5q18 0 32.5 -13.5t14.5 -33.5z" />
    <glyph glyph-name="notequal" unicode="&#x2260;" horiz-adv-x="626" 
d="M574 213q0 -21 -22 -21h-269l-97 -161q-11 -18 -29 -8l-10 7q-18 13 -8 29l80 133h-146q-21 0 -21 21v23q0 22 21 22h186l54 90h-240q-21 0 -21 21v23q0 22 21 22h279l96 160q5 9 14 11.5t17 -3.5l10 -7q18 -10 7 -29l-79 -132h135q22 0 22 -22v-23q0 -21 -22 -21h-176
l-54 -90h230q22 0 22 -22v-23z" />
    <glyph glyph-name="AE" unicode="&#xc6;" horiz-adv-x="775" 
d="M361 616q-6 -25 -13 -45t-18 -43l-129 -271h160v359zM715 20q0 -8 -6.5 -14t-14.5 -6h-312q-8 0 -14.5 6t-6.5 14v167h-195l-83 -167q-4 -8 -12 -14t-16 -6h-53q-8 0 -11.5 7t2.5 18l319 625q5 8 14 14t17 6h334q8 0 14.5 -5.5t6.5 -14.5v-33q0 -9 -5.5 -15.5t-15.5 -6.5
h-235v-204h215q9 0 15 -6t6 -14v-31q0 -10 -6 -16t-15 -6h-215v-241h251q9 0 15.5 -6t6.5 -15v-36z" />
    <glyph glyph-name="Oslash" unicode="&#xd8;" horiz-adv-x="576" 
d="M426 334q0 55 -5 103t-19 85l-185 -437q28 -22 71 -22q39 0 65.5 19.5t42.5 54.5t23 85t7 112zM360 586q-14 11 -31.5 17.5t-40.5 6.5q-48 0 -75.5 -24.5t-41.5 -64t-17.5 -89t-3.5 -98.5q0 -61 5.5 -107.5t18.5 -79.5zM515 333q0 -176 -58 -257t-168 -81q-58 0 -99 20
l-23 -55q-4 -8 -11.5 -10.5t-15.5 0.5l-26 11q-8 3 -11.5 11t0.5 16l30 71q-35 41 -53.5 108t-18.5 166q0 175 58 258.5t170 83.5q54 0 97 -20l23 54q4 8 11.5 10.5t15.5 -0.5l25 -11q8 -3 12 -10.5t0 -15.5l-30 -71q72 -83 72 -278z" />
    <glyph glyph-name="infinity" unicode="&#x221e;" horiz-adv-x="974" 
d="M348 310q-23 16 -47.5 25.5t-52.5 9.5q-29 0 -48 -8.5t-30 -21.5t-16 -29t-5 -31q0 -38 27 -63.5t72 -25.5q28 0 59.5 13t58.5 32l62 43zM826 261q0 38 -27 64t-72 26q-28 0 -60 -13t-58 -32l-60 -43l81 -54q23 -15 46 -25.5t51 -10.5t47.5 8t30.5 21t16 28.5t5 30.5z
M906 262q0 -43 -16 -73.5t-41.5 -50t-57.5 -28.5t-63 -9q-44 0 -84 16t-74 39l-87 60l-82 -59q-40 -29 -78.5 -43t-81.5 -14q-26 0 -56.5 7t-56 24.5t-42.5 47t-17 75.5q0 43 16 74t42 50.5t57.5 28.5t63.5 9q42 0 84.5 -17t80.5 -43l81 -55l82 59q38 27 78.5 42t80.5 15
q26 0 56 -7t55.5 -24.5t42.5 -47.5t17 -76z" />
    <glyph glyph-name="plusminus" unicode="&#xb1;" horiz-adv-x="479" 
d="M425 57q0 -21 -22 -21h-324q-21 0 -21 21v28q0 22 21 22h324q22 0 22 -22v-28zM425 315q0 -21 -22 -21h-128v-119q0 -21 -21 -21h-28q-22 0 -22 21v119h-129q-21 0 -21 21v28q0 22 21 22h129v111q0 22 22 22h28q21 0 21 -22v-111h128q22 0 22 -22v-28z" />
    <glyph glyph-name="lessequal" unicode="&#x2264;" horiz-adv-x="512" 
d="M437 57q0 -21 -22 -21h-324q-21 0 -21 21v28q0 22 21 22h324q22 0 22 -22v-28zM437 146q0 -8 -6.5 -12.5t-14.5 -1.5l-332 126q-14 5 -14 21v32q0 14 14 21l332 157q8 4 14.5 -1t6.5 -13v-37q0 -15 -14 -21l-262 -118l260 -95q16 -6 16 -22v-36z" />
    <glyph glyph-name="greaterequal" unicode="&#x2265;" horiz-adv-x="512" 
d="M442 57q0 -21 -21 -21h-324q-22 0 -22 21v28q0 22 22 22h324q21 0 21 -22v-28zM442 279q0 -16 -14 -21l-332 -126q-8 -3 -14.5 1.5t-6.5 12.5v36q0 16 16 22l260 95l-262 118q-14 6 -14 21v37q0 8 6.5 13t14.5 1l332 -157q14 -7 14 -21v-32z" />
    <glyph glyph-name="yen" unicode="&#xa5;" horiz-adv-x="607" 
d="M399 370h97q22 0 22 -22v-16q0 -21 -22 -21h-124l-28 -59v-37h152q22 0 22 -22v-16q0 -21 -22 -21h-152v-136q0 -8 -6.5 -14t-14.5 -6h-38q-8 0 -14.5 6t-6.5 14v136h-153q-21 0 -21 21v16q0 22 21 22h153v37l-28 59h-125q-21 0 -21 21v16q0 22 21 22h97l-123 259
q-3 6 0.5 12.5t13.5 6.5h63q14 0 19 -12l117 -281q5 -12 7 -24t4 -27l4 27t7 24l113 279q4 8 8 11t13 3h56q7 0 11 -4.5t-1 -15.5z" />
    <glyph glyph-name="mu" unicode="&#xb5;" horiz-adv-x="491" 
d="M410 20q0 -8 -6.5 -14t-14.5 -6h-24q-17 0 -20 17l-13 57l-17.5 -25t-22 -26t-29.5 -20t-41 -8q-29 0 -42 5.5t-22 11.5v-189q0 -9 -6.5 -14.5t-14.5 -5.5h-38q-8 0 -14.5 5.5t-6.5 14.5v639q0 9 6.5 14.5t14.5 5.5h38q8 0 14.5 -5.5t6.5 -14.5v-321q0 -47 19.5 -63
t48.5 -16q47 0 75.5 41t28.5 126v233q0 9 6.5 14.5t14.5 5.5h38q8 0 14.5 -5.5t6.5 -14.5v-442z" />
    <glyph glyph-name="mu" unicode="&#x3bc;" horiz-adv-x="491" 
d="M410 20q0 -8 -6.5 -14t-14.5 -6h-24q-17 0 -20 17l-13 57l-17.5 -25t-22 -26t-29.5 -20t-41 -8q-29 0 -42 5.5t-22 11.5v-189q0 -9 -6.5 -14.5t-14.5 -5.5h-38q-8 0 -14.5 5.5t-6.5 14.5v639q0 9 6.5 14.5t14.5 5.5h38q8 0 14.5 -5.5t6.5 -14.5v-321q0 -47 19.5 -63
t48.5 -16q47 0 75.5 41t28.5 126v233q0 9 6.5 14.5t14.5 5.5h38q8 0 14.5 -5.5t6.5 -14.5v-442z" />
    <glyph glyph-name="partialdiff" unicode="&#x2202;" horiz-adv-x="488" 
d="M362 232q0 12 -1 26t-2.5 27t-3 22.5t-2.5 12.5q-7 6 -20 12.5t-28.5 11.5t-32.5 8.5t-33 3.5q-51 0 -80 -37t-29 -109q0 -70 31.5 -113.5t85.5 -43.5t84.5 49t30.5 130zM443 241q0 -60 -15 -106t-42 -78t-64 -48.5t-80 -16.5q-42 0 -78 17t-62 46.5t-40.5 69.5t-14.5 87
q0 44 13.5 81t37.5 63.5t56.5 41t70.5 14.5q29 0 61 -7.5t54 -21.5q-12 38 -36 76t-58 72t-77 60.5t-94 40.5q-14 4 -14 10.5t3 14.5l9 25q3 9 10 10.5t18 -1.5q69 -19 131 -59.5t109 -98.5t74.5 -132t27.5 -160z" />
    <glyph glyph-name="summation" unicode="&#x2211;" horiz-adv-x="477" 
d="M422 16q0 -8 -7 -12t-15 -4h-346q-8 0 -14 6t-6 14v34q0 8 3.5 14t8.5 13l160 255l-160 253q-5 7 -8.5 13t-3.5 14v34q0 8 6 14t14 6h349q8 0 13.5 -5.5t5.5 -12.5v-37q0 -7 -7 -12.5t-15 -5.5h-279l157 -244q10 -16 0 -32l-159 -247h284q8 0 13.5 -6t5.5 -14v-38z" />
    <glyph glyph-name="product" unicode="&#x220f;" horiz-adv-x="617" 
d="M594 619q0 -21 -21 -21h-58v-578q0 -8 -6.5 -14t-14.5 -6h-38q-8 0 -14.5 6t-6.5 14v578h-253v-578q0 -8 -6.5 -14t-14.5 -6h-38q-8 0 -14.5 6t-6.5 14v578h-58q-21 0 -21 21v29q0 22 21 22h529q21 0 21 -22v-29z" />
    <glyph glyph-name="pi" unicode="&#x3c0;" horiz-adv-x="548" 
d="M535 28q2 -9 -1 -16t-14 -10t-25 -5t-30 -2q-100 0 -100 95v328h-182v-398q0 -8 -6.5 -14t-14.5 -6h-36q-8 0 -14.5 6t-6.5 14v398h-58q-21 0 -21 21v21q0 22 21 22h452q8 0 14 -6.5t6 -14.5v-22q0 -8 -6 -14.5t-14 -6.5h-56v-318q0 -39 36 -39q6 0 14.5 1t16.5 3
q17 3 21 -16z" />
    <glyph glyph-name="integral" unicode="&#x222b;" horiz-adv-x="295" 
d="M290 644q-6 -16 -24 -11q-8 2 -19.5 6t-21.5 4q-16 0 -26.5 -10t-12.5 -37l-46 -687q-4 -60 -33.5 -85.5t-73.5 -25.5q-25 0 -48.5 7t-34.5 12q-17 8 -10 26l10 28q7 17 24 11q8 -3 23.5 -8t25.5 -5q18 0 29.5 9.5t13.5 37.5l46 686q4 60 32.5 85.5t70.5 25.5
q20 0 42 -5.5t33 -10.5q17 -8 10 -26z" />
    <glyph glyph-name="ordfeminine" unicode="&#xaa;" horiz-adv-x="450" 
d="M267 531q-28 -1 -50.5 -2t-38 -7.5t-24 -20t-8.5 -40.5t12.5 -40.5t33.5 -13.5q17 0 31 7.5t23.5 19.5t15 27.5t5.5 31.5v38zM355 254q0 -21 -22 -21h-235q-21 0 -21 21v21q0 22 21 22h235q13 0 17.5 -6.5t4.5 -17.5v-19zM339 377q2 -6 -2 -10t-9 -4h-37q-12 0 -15 13
l-6 34q-15 -29 -42 -41t-56 -12q-42 0 -67.5 27.5t-25.5 75.5q0 31 9 52t24 34.5t34 20t39 7.5l82 4v13q0 33 -11 49t-50 16q-22 0 -38.5 -3.5t-31.5 -8.5q-6 -1 -11 1.5t-7 9.5l-5 28q-4 16 9 18q14 5 40 8.5t49 3.5q40 0 64 -11.5t36.5 -29.5t16 -40.5t3.5 -44.5v-129
q0 -14 0.5 -28.5t3.5 -31.5z" />
    <glyph glyph-name="ordmasculine" unicode="&#xba;" horiz-adv-x="456" 
d="M288 538q0 62 -15 92t-52 30q-36 0 -51.5 -30t-15.5 -92q0 -64 15.5 -96.5t51.5 -32.5q37 0 52 32.5t15 96.5zM367 254q0 -21 -22 -21h-247q-21 0 -21 21v21q0 22 21 22h247q13 0 17.5 -6.5t4.5 -17.5v-19zM359 534q0 -85 -38.5 -132t-102.5 -47t-98.5 47t-34.5 132
t36.5 132t101.5 47q64 0 100 -47t36 -132z" />
    <glyph glyph-name="Omega" unicode="&#x3a9;" horiz-adv-x="681" 
d="M626 20q0 -8 -6 -14t-14 -6h-180q-8 0 -14 6t-6 14v38q0 13 13 20q22 12 42 28.5t35.5 45.5t24.5 74t9 115q0 71 -14 122t-39 83.5t-58 47.5t-71 15t-71.5 -13.5t-58 -44.5t-39 -82.5t-14.5 -127.5q0 -70 9 -115t24.5 -73.5t35.5 -45t42 -29.5q13 -7 13 -20v-38
q0 -8 -6 -14t-14 -6h-180q-8 0 -14 6t-6 14v31q0 8 6 14t14 6h110q-30 16 -53.5 44t-39.5 63.5t-24 77t-8 85.5q0 62 16 122t49 107t84.5 76t123.5 29q70 0 122 -29t85.5 -76.5t50 -107.5t16.5 -121q0 -101 -32.5 -168.5t-93.5 -101.5h111q8 0 14 -6t6 -14v-31z" />
    <glyph glyph-name="Omega" unicode="&#x2126;" horiz-adv-x="681" 
d="M626 20q0 -8 -6 -14t-14 -6h-180q-8 0 -14 6t-6 14v38q0 13 13 20q22 12 42 28.5t35.5 45.5t24.5 74t9 115q0 71 -14 122t-39 83.5t-58 47.5t-71 15t-71.5 -13.5t-58 -44.5t-39 -82.5t-14.5 -127.5q0 -70 9 -115t24.5 -73.5t35.5 -45t42 -29.5q13 -7 13 -20v-38
q0 -8 -6 -14t-14 -6h-180q-8 0 -14 6t-6 14v31q0 8 6 14t14 6h110q-30 16 -53.5 44t-39.5 63.5t-24 77t-8 85.5q0 62 16 122t49 107t84.5 76t123.5 29q70 0 122 -29t85.5 -76.5t50 -107.5t16.5 -121q0 -101 -32.5 -168.5t-93.5 -101.5h111q8 0 14 -6t6 -14v-31z" />
    <glyph glyph-name="ae" unicode="&#xe6;" horiz-adv-x="723" 
d="M311 224q-48 0 -82.5 -2t-56 -10.5t-31.5 -26.5t-10 -50q0 -39 18 -57.5t50 -18.5q25 0 46 10t35.5 25t22.5 32.5t8 32.5v65zM582 288q-1 25 -6.5 49t-16.5 43t-28.5 31t-41.5 12q-12 0 -27.5 -5t-30 -19t-26 -41t-16.5 -70h193zM664 245q0 -8 -6 -14.5t-14 -6.5h-255
q3 -81 33 -120t96 -39q29 0 50.5 4.5t44.5 11.5q11 3 17 -1t9 -12l9 -25q6 -18 -13 -26q-20 -9 -46.5 -15.5t-69.5 -6.5q-60 0 -105.5 21t-72.5 67q-23 -35 -63.5 -61.5t-100.5 -26.5q-58 0 -93 36.5t-35 103.5q0 42 14 71.5t40 47.5t63 26t84 8h61v39q0 43 -18 65.5
t-73 22.5q-31 0 -53 -6l-42 -11q-9 -2 -16 2t-9 13l-6 32q-3 20 14 24q20 5 52 11.5t64 6.5q53 0 88 -16t50 -44q23 31 54.5 45.5t70.5 14.5q34 0 66 -11.5t56.5 -39.5t39.5 -74.5t15 -116.5z" />
    <glyph glyph-name="oslash" unicode="&#xf8;" horiz-adv-x="480" 
d="M272 412q-19 8 -40 8q-106 0 -106 -179q0 -80 21 -125zM338 241q0 82 -22 126l-127 -299q18 -9 43 -9q106 0 106 182zM424 241q0 -116 -51 -181t-139 -65q-37 0 -67 12l-17 -40q-4 -8 -11.5 -10t-15.5 1l-21 9q-8 3 -12 10.5t0 15.5l21 49q-33 32 -51 82t-18 117
q0 57 13.5 103t39 77.5t60.5 48.5t79 17q35 0 62 -10l16 38q4 8 12 10.5t16 -0.5l21 -9q8 -3 11.5 -10.5t-0.5 -15.5l-20 -47q35 -32 53.5 -82.5t18.5 -119.5z" />
    <glyph glyph-name="questiondown" unicode="&#xbf;" horiz-adv-x="420" 
d="M354 -133q6 -15 -8 -25q-26 -19 -59.5 -29t-67.5 -10q-36 0 -65.5 12t-51 33t-33.5 50t-12 64q0 46 20.5 84t45 72t45 66t20.5 65v14q0 15 4.5 21t15.5 6h39q12 0 17 -6t5 -21v-12q0 -47 -19 -83t-41.5 -68.5t-41.5 -63.5t-19 -68q0 -38 21.5 -59.5t59.5 -21.5
q31 0 52 11.5t29 14.5q11 5 18 1t10 -10zM291 440q0 -26 -18.5 -44.5t-44.5 -18.5t-44 18.5t-18 44.5t18 44t44 18t44.5 -18t18.5 -44z" />
    <glyph glyph-name="exclamdown" unicode="&#xa1;" horiz-adv-x="318" 
d="M208 -172q0 -20 -21 -20h-56q-21 0 -21 20l11 438q0 14 5.5 19t14.5 5h34q9 0 14.5 -6.5t5.5 -17.5zM222 440q0 -26 -18.5 -44.5t-44.5 -18.5t-44 18.5t-18 44.5t18 44t44 18t44.5 -18t18.5 -44z" />
    <glyph glyph-name="logicalnot" unicode="&#xac;" horiz-adv-x="529" 
d="M449 98q0 -21 -21 -21h-28q-22 0 -22 21v119h-297q-21 0 -21 21v28q0 22 21 22h346q22 0 22 -22v-168z" />
    <glyph glyph-name="radical" unicode="&#x221a;" horiz-adv-x="581" 
d="M360 16q-5 -16 -20 -16h-56q-7 0 -12 4.5t-7 10.5l-144 418h-70q-8 0 -14 6t-6 14v29q0 8 6 14t14 6h120q6 0 11.5 -4t7.5 -9l106 -342q6 -20 11.5 -43t7.5 -38q2 16 6.5 38.5t9.5 42.5l157 595q2 7 7.5 11.5t11.5 4.5h44q11 0 15.5 -7t2.5 -16z" />
    <glyph glyph-name="florin" unicode="&#x192;" horiz-adv-x="328" 
d="M311 644q-6 -16 -24 -11q-8 2 -19.5 6t-21.5 4q-16 0 -26.5 -10t-12.5 -37l-8 -114h76q8 0 14 -6.5t6 -14.5v-22q0 -8 -6 -14.5t-14 -6.5h-80l-24 -372q-3 -50 -6.5 -85.5t-14 -63t-31 -50t-58.5 -46.5q-9 -5 -16.5 -3t-11.5 9l-17 28q-5 8 -2.5 15.5t8.5 11.5
q25 18 39 33.5t21.5 34.5t10 45t4.5 64l24 379h-53q-9 0 -14.5 6.5t-5.5 14.5v22q0 8 5.5 14.5t14.5 6.5h57l8 120q4 60 32.5 85.5t70.5 25.5q20 0 42 -5.5t33 -10.5q17 -8 10 -26z" />
    <glyph glyph-name="approxequal" unicode="&#x2248;" horiz-adv-x="522" 
d="M514 643q-5 -16 -23 -11q-8 2 -20.5 6.5t-22.5 4.5q-16 0 -25.5 -10t-9.5 -37v-114h77q8 0 14 -6.5t6 -14.5v-22q0 -8 -6 -14.5t-14 -6.5h-77v-398q0 -8 -6.5 -14t-14.5 -6h-36q-8 0 -14.5 6t-6.5 14v398h-167l1 -398q0 -8 -6.5 -14t-14.5 -6h-36q-8 0 -14.5 6t-6.5 14
v398h-55q-9 0 -14.5 6.5t-5.5 14.5v22q0 8 5.5 14.5t14.5 6.5h55v87q0 39 11.5 65t30 41.5t42.5 21.5t48 6q20 0 45.5 -4.5t37.5 -9.5q17 -8 12 -27l-8 -28q-5 -17 -23 -11q-11 4 -27 7.5t-36 3.5q-8 0 -17.5 -2.5t-18 -10t-14 -21.5t-5.5 -36v-82h166v117q0 62 31 88t78 26
q12 0 33 -5.5t33 -10.5q17 -8 12 -27z" />
    <glyph glyph-name="Delta" unicode="&#x394;" horiz-adv-x="649" 
d="M273 553q-3 10 -4.5 18l-3.5 19l-4 -18l-4 -18l-131 -477h286zM519 22q3 -9 -1.5 -15.5t-12.5 -6.5h-469q-8 0 -12.5 6.5t-1.5 15.5l187 628q2 8 10.5 14t16.5 6h59q8 0 16.5 -6t10.5 -14z" />
    <glyph glyph-name="Delta" unicode="&#x2206;" horiz-adv-x="649" 
d="M273 553q-3 10 -4.5 18l-3.5 19l-4 -18l-4 -18l-131 -477h286zM519 22q3 -9 -1.5 -15.5t-12.5 -6.5h-469q-8 0 -12.5 6.5t-1.5 15.5l187 628q2 8 10.5 14t16.5 6h59q8 0 16.5 -6t10.5 -14z" />
    <glyph glyph-name="guillemotleft" unicode="&#xab;" horiz-adv-x="492" 
d="M244 76q4 -6 2.5 -13t-5.5 -9l-30 -20q-5 -4 -12 -1.5t-10 7.5l-125 187q-8 12 0 25l125 188q4 5 10.5 7t11.5 -1l29 -19q5 -4 6.5 -10.5t-2.5 -12.5l-108 -164zM419 76q4 -6 2.5 -13t-5.5 -9l-30 -20q-5 -4 -12 -1.5t-10 7.5l-125 187q-8 12 0 25l125 188q4 5 10.5 7
t11.5 -1l29 -19q5 -4 6.5 -10.5t-2.5 -12.5l-108 -164z" />
    <glyph glyph-name="guillemotright" unicode="&#xbb;" horiz-adv-x="492" 
d="M128 40q-3 -5 -10 -7.5t-12 1.5l-30 20q-4 2 -5.5 9t2.5 13l108 164l-108 164q-4 6 -2.5 12.5t6.5 10.5l29 19q5 3 11.5 1t10.5 -7l125 -188q8 -13 0 -25zM303 40q-3 -5 -10 -7.5t-12 1.5l-30 20q-4 2 -5.5 9t2.5 13l108 164l-108 164q-4 6 -2.5 12.5t6.5 10.5l29 19
q5 3 11.5 1t10.5 -7l125 -188q8 -13 0 -25z" />
    <glyph glyph-name="ellipsis" unicode="&#x2026;" horiz-adv-x="646" 
d="M156 58q0 -26 -18.5 -44.5t-44.5 -18.5t-44 18.5t-18 44.5t18 44t44 18t44.5 -18t18.5 -44zM386 58q0 -26 -18.5 -44.5t-44.5 -18.5t-44 18.5t-18 44.5t18 44t44 18t44.5 -18t18.5 -44zM616 58q0 -26 -18.5 -44.5t-44.5 -18.5t-44 18.5t-18 44.5t18 44t44 18t44.5 -18
t18.5 -44z" />
    <glyph glyph-name="nonbreakingspace" unicode="&#xa0;" horiz-adv-x="100" 
 />
    <glyph glyph-name="Agrave" unicode="&#xc0;" 
d="M279 545q-5 19 -8.5 40.5l-6.5 41.5q-5 -44 -15 -82l-77 -290h187zM519 22q3 -9 -1.5 -15.5t-12.5 -6.5h-52q-8 0 -16.5 6t-10.5 14l-48 167h-224l-45 -167q-2 -8 -9 -14t-15 -6h-49q-8 0 -12.5 6.5t-1.5 15.5l184 628q3 11 11 15.5t16 4.5h63q8 0 16 -4.5t11 -15.5z
M326 738q-8 -15 -25 -7l-175 79q-8 4 -12 11t2 18l21 39q10 16 26 6l163 -103q17 -10 9 -26z" />
    <glyph glyph-name="Atilde" unicode="&#xc3;" 
d="M279 545q-5 19 -8.5 40.5l-6.5 41.5q-5 -44 -15 -82l-77 -290h187zM519 22q3 -9 -1.5 -15.5t-12.5 -6.5h-52q-8 0 -16.5 6t-10.5 14l-48 167h-224l-45 -167q-2 -8 -9 -14t-15 -6h-49q-8 0 -12.5 6.5t-1.5 15.5l184 628q3 11 11 15.5t16 4.5h63q8 0 16 -4.5t11 -15.5z
M416 817q8 -8 5 -15.5t-9 -13.5q-23 -23 -44.5 -33t-57.5 -10q-22 0 -36 5.5t-26 12t-25 12t-34 5.5q-20 0 -31 -5.5t-23 -16.5q-6 -5 -10.5 -3t-12.5 10l-7 7q-7 7 -4.5 14t10.5 15q19 20 42 30.5t58 10.5q21 0 35 -5.5t26 -12t25.5 -12t34.5 -5.5q20 0 31 4.5t22 15.5
q5 5 11 5.5t12 -6.5z" />
    <glyph glyph-name="Otilde" unicode="&#xd5;" horiz-adv-x="576" 
d="M428 334q0 57 -6 107t-21.5 87t-42.5 58.5t-70 21.5q-48 0 -76 -24.5t-42 -63.5t-18 -88t-4 -98q0 -142 34 -205.5t106 -63.5q39 0 66 19t43.5 54t23.5 84.5t7 111.5zM515 333q0 -176 -58 -257t-168 -81q-112 0 -170 81t-58 257q0 175 58 258.5t170 83.5t169 -83.5
t57 -258.5zM436 817q8 -8 5 -15.5t-9 -13.5q-23 -23 -44.5 -33t-57.5 -10q-22 0 -36 5.5t-26 12t-25 12t-34 5.5q-20 0 -31 -5.5t-23 -16.5q-6 -5 -10.5 -3t-12.5 10l-7 7q-7 7 -4.5 14t10.5 15q19 20 42 30.5t58 10.5q21 0 35 -5.5t26 -12t25.5 -12t34.5 -5.5q20 0 31 4.5
t22 15.5q5 5 11 5.5t12 -6.5z" />
    <glyph glyph-name="OE" unicode="&#x152;" horiz-adv-x="761" 
d="M352 600q-13 5 -28.5 7.5t-31.5 2.5q-50 0 -77.5 -25t-40.5 -65t-16 -89.5t-3 -98.5q0 -142 31 -206.5t106 -64.5q16 0 32 3t28 8v528zM706 20q0 -8 -6.5 -14t-14.5 -6h-333q-17 -2 -28 -4t-31 -2q-115 0 -171.5 79t-56.5 259q0 179 56.5 261t171.5 82q11 0 18.5 -0.5
t13.5 -1.5t12.5 -1.5t14.5 -1.5h325q8 0 14.5 -5.5t6.5 -14.5v-33q0 -9 -5.5 -15.5t-15.5 -6.5h-244v-204h220q9 0 15 -6t6 -14v-31q0 -10 -6 -16t-15 -6h-220v-241h251q9 0 15.5 -6t6.5 -15v-36z" />
    <glyph glyph-name="oe" unicode="&#x153;" horiz-adv-x="739" 
d="M338 241q0 179 -106 179t-106 -179q0 -182 106 -182t106 182zM611 285q-1 25 -6 50t-16.5 44.5t-28.5 31.5t-42 12q-12 0 -27.5 -5t-30 -19.5t-26.5 -41.5t-16 -72h193zM693 242q0 -8 -6 -14.5t-14 -6.5h-255q3 -76 32 -116t97 -40q29 0 50.5 4.5t44.5 11.5q11 3 17 -1
t9 -12l9 -25q6 -18 -13 -26q-20 -9 -46.5 -15.5t-69.5 -6.5q-57 0 -99.5 19.5t-68.5 58.5q-49 -78 -146 -78q-44 0 -79 17t-60.5 48.5t-39 77t-13.5 103.5q0 57 13.5 103t39 77.5t60.5 48.5t79 17q46 0 83 -19t61 -57q23 37 58.5 56.5t79.5 19.5q34 0 66 -11.5t57 -40
t39.5 -75.5t14.5 -118z" />
    <glyph glyph-name="endash" unicode="&#x2013;" horiz-adv-x="500" 
d="M500 270q0 -21 -22 -21h-457q-21 0 -21 21v17q0 22 21 22h457q22 0 22 -22v-17z" />
    <glyph glyph-name="emdash" unicode="&#x2014;" horiz-adv-x="1000" 
d="M1000 270q0 -21 -22 -21h-957q-21 0 -21 21v17q0 22 21 22h957q22 0 22 -22v-17z" />
    <glyph glyph-name="quotedblleft" unicode="&#x201c;" horiz-adv-x="358" 
d="M157 573q0 -28 -18.5 -45.5t-43.5 -17.5q-26 0 -44.5 18.5t-18.5 51.5q0 19 6.5 39t16.5 39.5t22.5 36.5t25.5 30q15 15 28 5l14 -12q15 -12 3 -26q-11 -14 -17 -22.5t-10 -16.5q-6 -14 -3.5 -19t8.5 -8q12 -6 21.5 -20t9.5 -33zM327 573q0 -28 -18.5 -45.5t-43.5 -17.5
q-26 0 -44.5 18.5t-18.5 51.5q0 19 6.5 39t16.5 39.5t22.5 36.5t25.5 30q15 15 28 5l14 -12q15 -12 3 -26q-11 -14 -17 -22.5t-10 -16.5q-6 -14 -3.5 -19t8.5 -8q12 -6 21.5 -20t9.5 -33z" />
    <glyph glyph-name="quotedblright" unicode="&#x201d;" horiz-adv-x="358" 
d="M156 655q0 -19 -6.5 -39t-16.5 -39.5t-22.5 -36.5t-25.5 -30q-15 -15 -28 -5l-14 12q-15 12 -3 26q11 14 17 22.5t10 16.5q6 14 3.5 19t-8.5 8q-12 6 -21.5 20t-9.5 33q0 28 18.5 45.5t43.5 17.5q26 0 44.5 -18.5t18.5 -51.5zM326 655q0 -19 -6.5 -39t-16.5 -39.5
t-22.5 -36.5t-25.5 -30q-15 -15 -28 -5l-14 12q-15 12 -3 26q11 14 17 22.5t10 16.5q6 14 3.5 19t-8.5 8q-12 6 -21.5 20t-9.5 33q0 28 18.5 45.5t43.5 17.5q26 0 44.5 -18.5t18.5 -51.5z" />
    <glyph glyph-name="quoteleft" unicode="&#x2018;" horiz-adv-x="188" 
d="M157 573q0 -28 -18.5 -45.5t-43.5 -17.5q-26 0 -44.5 18.5t-18.5 51.5q0 19 6.5 39t16.5 39.5t22.5 36.5t25.5 30q15 15 28 5l14 -12q15 -12 3 -26q-11 -14 -17 -22.5t-10 -16.5q-6 -14 -3.5 -19t8.5 -8q12 -6 21.5 -20t9.5 -33z" />
    <glyph glyph-name="quoteright" unicode="&#x2019;" horiz-adv-x="188" 
d="M156 655q0 -19 -6.5 -39t-16.5 -39.5t-22.5 -36.5t-25.5 -30q-15 -15 -28 -5l-14 12q-15 12 -3 26q11 14 17 22.5t10 16.5q6 14 3.5 19t-8.5 8q-12 6 -21.5 20t-9.5 33q0 28 18.5 45.5t43.5 17.5q26 0 44.5 -18.5t18.5 -51.5z" />
    <glyph glyph-name="divide" unicode="&#xf7;" horiz-adv-x="736" 
d="M658 20q0 -8 -6.5 -14t-14.5 -6h-36q-8 0 -14.5 6t-6.5 14v398h-167v-398q0 -8 -6.5 -14t-14.5 -6h-36q-8 0 -14.5 6t-6.5 14v398h-168l1 -398q0 -8 -6.5 -14t-14.5 -6h-36q-8 0 -14.5 6t-6.5 14v398h-55q-9 0 -14.5 6.5t-5.5 14.5v22q0 8 5.5 14.5t14.5 6.5h55l1 87
q0 39 11.5 65t30.5 41.5t42.5 21.5t47.5 6q20 0 45.5 -4.5t37.5 -9.5q17 -8 12 -27l-8 -28q-5 -17 -23 -11q-11 4 -27 7.5t-36 3.5q-8 0 -17.5 -2.5t-18 -10t-14 -21.5t-5.5 -36v-82h166v92q0 42 12.5 69t33.5 42.5t49.5 21.5t61.5 6q15 0 33 -2.5t35 -6.5t32 -8.5t23 -7.5
q8 -4 11.5 -11.5t0.5 -15.5l-14 -31q-6 -16 -23 -10q-15 5 -43.5 13.5t-54.5 8.5q-17 0 -31 -2.5t-25 -10t-17 -22t-6 -38.5v-87h224q21 0 21 -20v-442z" />
    <glyph glyph-name="lozenge" unicode="&#x25ca;" horiz-adv-x="749" 
d="M739 27q3 -15 -13 -21q-13 -5 -27.5 -8t-31.5 -3q-48 0 -69.5 21.5t-21.5 63.5v548q-14 5 -40 10.5t-48 5.5q-14 0 -27.5 -2t-24 -9t-17 -21t-6.5 -38v-92h77q8 0 14 -6.5t6 -14.5v-22q0 -8 -6 -14.5t-14 -6.5h-77v-398q0 -8 -6.5 -14t-14.5 -6h-36q-8 0 -14.5 6t-6.5 14
v398h-167v-398q0 -8 -6.5 -14t-14.5 -6h-36q-8 0 -14.5 6t-6.5 14v398h-55q-9 0 -14.5 6.5t-5.5 14.5v22q0 8 5.5 14.5t14.5 6.5h55l1 87q0 39 11.5 65t30.5 41.5t42.5 21.5t47.5 6q20 0 45.5 -4.5t37.5 -9.5q17 -8 12 -27l-8 -28q-5 -17 -23 -11q-11 4 -27 7.5t-36 3.5
q-8 0 -17.5 -2.5t-18 -10t-14 -21.5t-5.5 -36v-82h166v97q0 42 12.5 68.5t33.5 41t48.5 19.5t57.5 5q23 0 45 -3.5t41.5 -8t35 -10t25.5 -8.5q8 -3 14 -8t6 -16v-559q0 -19 4 -29t21 -10q7 0 15 2t17 4q18 4 22 -13z" />
    <glyph glyph-name="ydieresis" unicode="&#xff;" horiz-adv-x="436" 
d="M263 -68q-11 -42 -34.5 -73t-61.5 -49l-21 -10q-7 -3 -14.5 -1t-11.5 10l-14 28q-3 6 0 15.5t10 12.5l15 7q29 14 43 39.5t23 60.5l17 65h-31q-19 0 -24 19l-130 406q-3 8 3 14t14 6h47q19 0 25 -20l97 -333q3 -11 5.5 -25l4.5 -26q2 11 6.5 30.5t9.5 38.5l82 316
q4 19 24 19h45q8 0 13.5 -6t3.5 -14zM187 623q0 -21 -13.5 -35t-34.5 -14q-19 0 -33 14t-14 35q0 20 14 33.5t32 13.5q21 0 35 -13.5t14 -33.5zM360 623q0 -21 -14 -35t-32 -14q-21 0 -35.5 14t-14.5 35q0 20 14 33.5t35 13.5q18 0 32.5 -13.5t14.5 -33.5z" />
    <glyph glyph-name="Ydieresis" unicode="&#x178;" horiz-adv-x="495" 
d="M289 255v-235q0 -8 -6.5 -14t-14.5 -6h-38q-8 0 -14.5 6t-6.5 14v235l-183 396q-3 6 0.5 12.5t13.5 6.5h63q14 0 19 -12l102 -246q14 -32 19.5 -55.5t10.5 -47.5q4 24 9.5 46.5t19.5 57.5l96 243q5 14 21 14h59q7 0 11 -4.5t-1 -15.5zM211 783q0 -21 -13.5 -35t-34.5 -14
q-19 0 -33 14t-14 35q0 20 14 33.5t32 13.5q21 0 35 -13.5t14 -33.5zM384 783q0 -21 -14 -35t-32 -14q-21 0 -35.5 14t-14.5 35q0 20 14 33.5t35 13.5q18 0 32.5 -13.5t14.5 -33.5z" />
    <glyph glyph-name="fraction" unicode="&#x2044;" horiz-adv-x="257" 
d="M58 -28q-4 -16 -19 -16h-35q-12 0 -14.5 5.5t0.5 15.5l209 723q6 20 23 20h31q21 0 14 -23z" />
    <glyph glyph-name="fraction" unicode="&#x2215;" horiz-adv-x="257" 
d="M58 -28q-4 -16 -19 -16h-35q-12 0 -14.5 5.5t0.5 15.5l209 723q6 20 23 20h31q21 0 14 -23z" />
    <glyph glyph-name="currency" unicode="&#xa4;" horiz-adv-x="473" 
d="M320 268q0 23 -4.5 43.5t-14.5 35.5t-26.5 24t-39.5 9t-39 -9t-26 -24t-14.5 -35.5t-4.5 -43.5t4.5 -43.5t14.5 -35.5t26 -24t39 -9q46 0 65.5 32.5t19.5 79.5zM395 263q0 -35 -10.5 -65.5t-28.5 -49.5l34 -48q5 -6 4 -15t-8 -14l-31 -19q-8 -5 -16 -3.5t-13 9.5l-31 46
q-14 -5 -27 -7.5t-33 -2.5q-19 0 -31 3t-26 8l-31 -47q-5 -7 -12.5 -9.5t-15.5 2.5l-32 20q-8 5 -8.5 13t4.5 16l34 48q-19 22 -30 52.5t-11 68.5q0 36 12 69t32 55l-32 47q-6 8 -4 16t10 13l33 20q7 5 14.5 2.5t11.5 -9.5l30 -48q13 4 24 6t27 2q17 0 29 -2.5t25 -7.5
l28 49q5 8 12.5 10t15.5 -3l31 -19q8 -5 9.5 -14t-3.5 -15l-33 -47q22 -20 34.5 -53.5t12.5 -76.5z" />
    <glyph glyph-name="guilsinglleft" unicode="&#x2039;" horiz-adv-x="317" 
d="M244 76q5 -6 3 -13t-6 -9l-30 -20q-5 -4 -12 -1.5t-10 7.5l-125 187q-8 12 0 25l125 188q4 5 10.5 7t11.5 -1l29 -19q5 -4 6.5 -10.5t-2.5 -12.5l-108 -164z" />
    <glyph glyph-name="guilsinglright" unicode="&#x203a;" horiz-adv-x="317" 
d="M128 40q-3 -5 -10 -7.5t-12 1.5l-30 20q-4 2 -6 9t3 13l108 164l-108 164q-4 6 -2.5 12.5t6.5 10.5l29 19q5 3 11.5 1t10.5 -7l125 -188q8 -13 0 -25z" />
    <glyph glyph-name="daggerdbl" unicode="&#x2021;" horiz-adv-x="560" 
d="M490 142q0 -8 -5.5 -14.5t-14.5 -6.5h-155v-198q0 -9 -6.5 -14.5t-14.5 -5.5h-38q-8 0 -14.5 5.5t-6.5 14.5v198h-155q-9 0 -14.5 6.5t-5.5 14.5v25q0 8 5.5 14.5t14.5 6.5h155v211h-155q-9 0 -14.5 6.5t-5.5 14.5v25q0 8 5.5 14.5t14.5 6.5h155v184q0 9 6.5 14.5
t14.5 5.5h38q8 0 14.5 -5.5t6.5 -14.5v-184h155q9 0 14.5 -6.5t5.5 -14.5v-25q0 -8 -5.5 -14.5t-14.5 -6.5h-155v-211h155q9 0 14.5 -6.5t5.5 -14.5v-25z" />
    <glyph glyph-name="periodcentered" unicode="&#xb7;" horiz-adv-x="280" 
d="M210 302q0 -29 -20.5 -51.5t-49.5 -22.5t-49.5 22.5t-20.5 51.5t20.5 51.5t49.5 22.5t49.5 -22.5t20.5 -51.5z" />
    <glyph glyph-name="periodcentered" unicode="&#x2219;" horiz-adv-x="280" 
d="M210 302q0 -29 -20.5 -51.5t-49.5 -22.5t-49.5 22.5t-20.5 51.5t20.5 51.5t49.5 22.5t49.5 -22.5t20.5 -51.5z" />
    <glyph glyph-name="quotesinglbase" unicode="&#x201a;" horiz-adv-x="188" 
d="M156 50q0 -19 -6.5 -39t-16.5 -39.5t-22.5 -36.5t-25.5 -30q-15 -15 -28 -5l-14 12q-15 12 -3 26q11 14 17 22.5t10 16.5q6 14 3.5 19t-8.5 8q-12 6 -21.5 20t-9.5 33q0 28 18.5 45.5t43.5 17.5q26 0 44.5 -18.5t18.5 -51.5z" />
    <glyph glyph-name="quotedblbase" unicode="&#x201e;" horiz-adv-x="358" 
d="M156 50q0 -19 -6.5 -39t-16.5 -39.5t-22.5 -36.5t-25.5 -30q-15 -15 -28 -5l-14 12q-15 12 -3 26q11 14 17 22.5t10 16.5q6 14 3.5 19t-8.5 8q-12 6 -21.5 20t-9.5 33q0 28 18.5 45.5t43.5 17.5q26 0 44.5 -18.5t18.5 -51.5zM326 50q0 -19 -6.5 -39t-16.5 -39.5
t-22.5 -36.5t-25.5 -30q-15 -15 -28 -5l-14 12q-15 12 -3 26q11 14 17 22.5t10 16.5q6 14 3.5 19t-8.5 8q-12 6 -21.5 20t-9.5 33q0 28 18.5 45.5t43.5 17.5q26 0 44.5 -18.5t18.5 -51.5z" />
    <glyph glyph-name="perthousand" unicode="&#x2030;" horiz-adv-x="1316" 
d="M311 450q0 28 -4 54t-13 45.5t-23 31t-34 11.5t-35 -11.5t-25 -31t-15 -45.5t-5 -54t5 -54t15 -45.5t25 -31t35 -11.5t34 11.5t23 31t13 45.5t4 54zM780 198q0 28 -4 54t-13 45.5t-23 31t-34 11.5t-35 -11.5t-25 -31t-15 -45.5t-5 -54t5 -54t15 -45.5t25 -31t35 -11.5
t34 11.5t23 31t13 45.5t4 54zM1160 198q0 28 -4 54t-13 45.5t-23 31t-34 11.5t-35 -11.5t-25 -31t-15 -45.5t-5 -54t5 -54t15 -45.5t25 -31t35 -11.5t34 11.5t23 31t13 45.5t4 54zM389 450q0 -95 -39 -149t-110 -54q-35 0 -65 14t-51.5 40t-33.5 64t-12 85t12 84.5t33.5 64
t51.5 40.5t65 14q71 0 110 -54t39 -149zM400 -32q-2 -8 -5 -12t-11 -4h-38q-12 0 -14.5 5.5t0.5 15.5l203 701q6 20 23 20h31q21 0 14 -23zM858 198q0 -95 -39 -149t-110 -54q-35 0 -65 14t-51.5 40t-33.5 64t-12 85t12 84.5t33.5 64t51.5 40.5t65 14q71 0 110 -54t39 -149z
M1238 198q0 -95 -39 -149t-110 -54q-35 0 -65 14t-51.5 40t-33.5 64t-12 85t12 84.5t33.5 64t51.5 40.5t65 14q71 0 110 -54t39 -149z" />
    <glyph glyph-name="Acircumflex" unicode="&#xc2;" 
d="M279 545q-5 19 -8.5 40.5l-6.5 41.5q-5 -44 -15 -82l-77 -290h187zM519 22q3 -9 -1.5 -15.5t-12.5 -6.5h-52q-8 0 -16.5 6t-10.5 14l-48 167h-224l-45 -167q-2 -8 -9 -14t-15 -6h-49q-8 0 -12.5 6.5t-1.5 15.5l184 628q3 11 11 15.5t16 4.5h63q8 0 16 -4.5t11 -15.5z
M398 745q-4 -5 -12.5 -7.5t-14.5 1.5l-112 75l-106 -74q-6 -4 -14 -1.5t-12 7.5l-11 16q-9 12 4 23l125 100q8 7 18.5 7.5t19.5 -7.5l124 -98q6 -5 7 -12t-3 -12z" />
    <glyph glyph-name="Ecircumflex" unicode="&#xca;" horiz-adv-x="509" 
d="M454 20q0 -8 -6.5 -14t-14.5 -6h-312q-8 0 -14.5 6t-6.5 14v630q0 9 6.5 14.5t14.5 5.5h304q8 0 14.5 -5.5t6.5 -14.5v-33q0 -9 -5.5 -15.5t-15.5 -6.5h-244v-204h220q9 0 15 -6t6 -14v-31q0 -10 -6 -16t-15 -6h-220v-241h251q9 0 15.5 -6t6.5 -15v-36zM401 745
q-4 -5 -12.5 -7.5t-14.5 1.5l-112 75l-106 -74q-6 -4 -14 -1.5t-12 7.5l-11 16q-9 12 4 23l125 100q8 7 18.5 7.5t19.5 -7.5l124 -98q6 -5 7 -12t-3 -12z" />
    <glyph glyph-name="Aacute" unicode="&#xc1;" 
d="M279 545q-5 19 -8.5 40.5l-6.5 41.5q-5 -44 -15 -82l-77 -290h187zM519 22q3 -9 -1.5 -15.5t-12.5 -6.5h-52q-8 0 -16.5 6t-10.5 14l-48 167h-224l-45 -167q-2 -8 -9 -14t-15 -6h-49q-8 0 -12.5 6.5t-1.5 15.5l184 628q3 11 11 15.5t16 4.5h63q8 0 16 -4.5t11 -15.5z
M397 839q6 -11 2 -18t-12 -11l-175 -79q-17 -8 -25 7l-9 17q-8 16 9 26l163 103q16 10 26 -6z" />
    <glyph glyph-name="Edieresis" unicode="&#xcb;" horiz-adv-x="509" 
d="M454 20q0 -8 -6.5 -14t-14.5 -6h-312q-8 0 -14.5 6t-6.5 14v630q0 9 6.5 14.5t14.5 5.5h304q8 0 14.5 -5.5t6.5 -14.5v-33q0 -9 -5.5 -15.5t-15.5 -6.5h-244v-204h220q9 0 15 -6t6 -14v-31q0 -10 -6 -16t-15 -6h-220v-241h251q9 0 15.5 -6t6.5 -15v-36zM232 783
q0 -21 -13.5 -35t-34.5 -14q-19 0 -33 14t-14 35q0 20 14 33.5t32 13.5q21 0 35 -13.5t14 -33.5zM405 783q0 -21 -14 -35t-32 -14q-21 0 -35.5 14t-14.5 35q0 20 14 33.5t35 13.5q18 0 32.5 -13.5t14.5 -33.5z" />
    <glyph glyph-name="Egrave" unicode="&#xc8;" horiz-adv-x="509" 
d="M454 20q0 -8 -6.5 -14t-14.5 -6h-312q-8 0 -14.5 6t-6.5 14v630q0 9 6.5 14.5t14.5 5.5h304q8 0 14.5 -5.5t6.5 -14.5v-33q0 -9 -5.5 -15.5t-15.5 -6.5h-244v-204h220q9 0 15 -6t6 -14v-31q0 -10 -6 -16t-15 -6h-220v-241h251q9 0 15.5 -6t6.5 -15v-36zM344 738
q-8 -15 -25 -7l-175 79q-8 4 -12 11t2 18l21 39q10 16 26 6l163 -103q17 -10 9 -26z" />
    <glyph glyph-name="Iacute" unicode="&#xcd;" horiz-adv-x="280" 
d="M178 20q0 -8 -6.5 -14t-14.5 -6h-38q-8 0 -14.5 6t-6.5 14v630q0 9 6.5 14.5t14.5 5.5h38q8 0 14.5 -5.5t6.5 -14.5v-630zM281 839q6 -11 2 -18t-12 -11l-175 -79q-17 -8 -25 7l-9 17q-8 16 9 26l163 103q16 10 26 -6z" />
    <glyph glyph-name="Icircumflex" unicode="&#xce;" horiz-adv-x="280" 
d="M182 20q0 -8 -6.5 -14t-14.5 -6h-42q-8 0 -14.5 6t-6.5 14v630q0 9 6.5 14.5t14.5 5.5h42q8 0 14.5 -5.5t6.5 -14.5v-630zM278 745q-4 -5 -12.5 -7.5t-14.5 1.5l-112 75l-106 -74q-6 -4 -14 -1.5t-12 7.5l-11 16q-9 12 4 23l125 100q8 7 18.5 7.5t19.5 -7.5l124 -98
q6 -5 7 -12t-3 -12z" />
    <glyph glyph-name="Idieresis" unicode="&#xcf;" horiz-adv-x="280" 
d="M182 20q0 -8 -6.5 -14t-14.5 -6h-42q-8 0 -14.5 6t-6.5 14v630q0 9 6.5 14.5t14.5 5.5h42q8 0 14.5 -5.5t6.5 -14.5v-630zM101 783q0 -21 -13.5 -35t-34.5 -14q-19 0 -33 14t-14 35q0 20 14 33.5t32 13.5q21 0 35 -13.5t14 -33.5zM274 783q0 -21 -14 -35t-32 -14
q-21 0 -35.5 14t-14.5 35q0 20 14 33.5t35 13.5q18 0 32.5 -13.5t14.5 -33.5z" />
    <glyph glyph-name="Igrave" unicode="&#xcc;" horiz-adv-x="280" 
d="M182 20q0 -8 -6.5 -14t-14.5 -6h-42q-8 0 -14.5 6t-6.5 14v630q0 9 6.5 14.5t14.5 5.5h42q8 0 14.5 -5.5t6.5 -14.5v-630zM203 738q-8 -15 -25 -7l-175 79q-8 4 -12 11t2 18l21 39q10 16 26 6l163 -103q17 -10 9 -26z" />
    <glyph glyph-name="Oacute" unicode="&#xd3;" horiz-adv-x="576" 
d="M428 334q0 57 -6 107t-21.5 87t-42.5 58.5t-70 21.5q-48 0 -76 -24.5t-42 -63.5t-18 -88t-4 -98q0 -142 34 -205.5t106 -63.5q39 0 66 19t43.5 54t23.5 84.5t7 111.5zM515 333q0 -176 -58 -257t-168 -81q-112 0 -170 81t-58 257q0 175 58 258.5t170 83.5t169 -83.5
t57 -258.5zM423 839q6 -11 2 -18t-12 -11l-175 -79q-17 -8 -25 7l-9 17q-8 16 9 26l163 103q16 10 26 -6z" />
    <glyph glyph-name="Ocircumflex" unicode="&#xd4;" horiz-adv-x="576" 
d="M428 334q0 57 -6 107t-21.5 87t-42.5 58.5t-70 21.5q-48 0 -76 -24.5t-42 -63.5t-18 -88t-4 -98q0 -142 34 -205.5t106 -63.5q39 0 66 19t43.5 54t23.5 84.5t7 111.5zM515 333q0 -176 -58 -257t-168 -81q-112 0 -170 81t-58 257q0 175 58 258.5t170 83.5t169 -83.5
t57 -258.5zM418 745q-4 -5 -12.5 -7.5t-14.5 1.5l-112 75l-106 -74q-6 -4 -14 -1.5t-12 7.5l-11 16q-9 12 4 23l125 100q8 7 18.5 7.5t19.5 -7.5l124 -98q6 -5 7 -12t-3 -12z" />
    <glyph glyph-name="Ograve" unicode="&#xd2;" horiz-adv-x="576" 
d="M428 334q0 57 -6 107t-21.5 87t-42.5 58.5t-70 21.5q-48 0 -76 -24.5t-42 -63.5t-18 -88t-4 -98q0 -142 34 -205.5t106 -63.5q39 0 66 19t43.5 54t23.5 84.5t7 111.5zM515 333q0 -176 -58 -257t-168 -81q-112 0 -170 81t-58 257q0 175 58 258.5t170 83.5t169 -83.5
t57 -258.5zM350 738q-8 -15 -25 -7l-175 79q-8 4 -12 11t2 18l21 39q10 16 26 6l163 -103q17 -10 9 -26z" />
    <glyph glyph-name="Uacute" unicode="&#xda;" horiz-adv-x="599" 
d="M511 201q0 -100 -52.5 -153t-157.5 -53q-110 0 -158 55.5t-48 150.5v449q0 9 6.5 14.5t14.5 5.5h38q8 0 14.5 -5.5t6.5 -14.5v-431q0 -72 27 -113.5t99 -41.5q28 0 51.5 5.5t41 21.5t27.5 43.5t10 72.5v443q0 9 6.5 14.5t14.5 5.5h38q8 0 14.5 -5.5t6.5 -14.5v-449z
M454 839q6 -11 2 -18t-12 -11l-175 -79q-17 -8 -25 7l-9 17q-8 16 9 26l163 103q16 10 26 -6z" />
    <glyph glyph-name="Ucircumflex" unicode="&#xdb;" horiz-adv-x="599" 
d="M511 201q0 -100 -52.5 -153t-157.5 -53q-110 0 -158 55.5t-48 150.5v449q0 9 6.5 14.5t14.5 5.5h38q8 0 14.5 -5.5t6.5 -14.5v-431q0 -72 27 -113.5t99 -41.5q28 0 51.5 5.5t41 21.5t27.5 43.5t10 72.5v443q0 9 6.5 14.5t14.5 5.5h38q8 0 14.5 -5.5t6.5 -14.5v-449z
M439 745q-4 -5 -12.5 -7.5t-14.5 1.5l-112 75l-106 -74q-6 -4 -14 -1.5t-12 7.5l-11 16q-9 12 4 23l125 100q8 7 18.5 7.5t19.5 -7.5l124 -98q6 -5 7 -12t-3 -12z" />
    <glyph glyph-name="Ugrave" unicode="&#xd9;" horiz-adv-x="599" 
d="M511 201q0 -100 -52.5 -153t-157.5 -53q-110 0 -158 55.5t-48 150.5v449q0 9 6.5 14.5t14.5 5.5h38q8 0 14.5 -5.5t6.5 -14.5v-431q0 -72 27 -113.5t99 -41.5q28 0 51.5 5.5t41 21.5t27.5 43.5t10 72.5v443q0 9 6.5 14.5t14.5 5.5h38q8 0 14.5 -5.5t6.5 -14.5v-449z
M376 738q-8 -15 -25 -7l-175 79q-8 4 -12 11t2 18l21 39q10 16 26 6l163 -103q17 -10 9 -26z" />
    <glyph glyph-name="dotlessi" unicode="&#x131;" horiz-adv-x="246" 
d="M162 20q0 -8 -6.5 -14t-14.5 -6h-36q-8 0 -14.5 6t-6.5 14v442q0 8 6.5 14t14.5 6h36q8 0 14.5 -6t6.5 -14v-442z" />
    <glyph glyph-name="circumflex" unicode="&#x2c6;" horiz-adv-x="418" 
d="M341 585q-4 -5 -12.5 -7.5t-14.5 1.5l-112 75l-106 -74q-6 -4 -14 -1.5t-12 7.5l-11 16q-9 12 4 23l125 100q8 7 18.5 7.5t19.5 -7.5l124 -98q6 -5 7 -12t-3 -12z" />
    <glyph glyph-name="tilde" unicode="&#x2dc;" horiz-adv-x="395" 
d="M351 657q8 -8 5 -15.5t-9 -13.5q-23 -23 -44.5 -33t-57.5 -10q-22 0 -36 5.5t-26 12t-25 12t-34 5.5q-20 0 -31 -5.5t-23 -16.5q-6 -5 -10.5 -3t-12.5 10l-7 7q-7 7 -4.5 14t10.5 15q19 20 42 30.5t58 10.5q21 0 35 -5.5t26 -12t25.5 -12t34.5 -5.5q20 0 31 4.5t22 15.5
q5 5 11 5.5t12 -6.5z" />
    <glyph glyph-name="macron" unicode="&#xaf;" horiz-adv-x="370" 
d="M295 623q0 -21 -22 -21h-185q-21 0 -21 21v25q0 22 21 22h185q22 0 22 -22v-25z" />
    <glyph glyph-name="macron" unicode="&#x2c9;" horiz-adv-x="370" 
d="M295 623q0 -21 -22 -21h-185q-21 0 -21 21v25q0 22 21 22h185q22 0 22 -22v-25z" />
    <glyph glyph-name="breve" unicode="&#x2d8;" horiz-adv-x="418" 
d="M363 680q-9 -11 -24.5 -27t-36.5 -30.5t-46 -25t-53 -10.5q-29 0 -55 11t-47 26.5t-36.5 31.5t-23.5 26q-10 12 1 24l16 19q5 5 9 6.5t11 -3.5q9 -8 22.5 -18.5t30 -20t36 -16t40.5 -6.5q22 0 41 7t34.5 17t28 20.5l21.5 17.5q10 7 20 -7l11 -15q7 -9 6 -14.5t-6 -12.5z
" />
    <glyph glyph-name="dotaccent" unicode="&#x2d9;" horiz-adv-x="259" 
d="M190 638q0 -26 -17.5 -43.5t-43.5 -17.5t-43.5 17.5t-17.5 42.5q0 26 17.5 44t43.5 18t43.5 -17.5t17.5 -43.5z" />
    <glyph glyph-name="ring" unicode="&#x2da;" horiz-adv-x="328" 
d="M209 659q0 20 -13 35.5t-33 15.5t-33 -15.5t-13 -35.5t13 -35.5t33 -15.5t33 15.5t13 35.5zM245 659q0 -35 -23.5 -59t-58.5 -24t-58.5 24t-23.5 59t23.5 59t58.5 24t58.5 -24t23.5 -59z" />
    <glyph glyph-name="cedilla" unicode="&#xb8;" horiz-adv-x="446" 
d="M329 -114q0 -14 -6.5 -29t-18.5 -27t-30.5 -19.5t-42.5 -7.5q-18 0 -35 5t-31 12q-13 5 -8 20l9 24q4 11 15 5q25 -11 50 -11q14 0 25 8t11 22q0 15 -12.5 22t-25.5 7q-8 0 -13 -0.5t-8 -0.5q-17 0 -12 17l24 87h49l-15 -62q22 0 36.5 -6t23 -16.5t12 -23.5t3.5 -26z" />
    <glyph glyph-name="hungarumlaut" unicode="&#x2dd;" horiz-adv-x="445" 
d="M110 535q-10 -18 -25 -9l-17 9q-9 5 -10 11.5t2 14.5l74 178q7 18 25 10l39 -19q11 -5 12.5 -13.5t-3.5 -16.5zM265 541q-13 -14 -26 -4l-16 11q-8 5 -7.5 12.5t5.5 15.5l106 161q10 16 26 6l35 -27q10 -8 9.5 -16t-6.5 -15z" />
    <glyph glyph-name="ogonek" unicode="&#x2db;" horiz-adv-x="446" 
d="M308 -157q4 -10 2 -14.5t-10 -8.5q-14 -8 -32 -12.5t-35 -4.5q-48 0 -73 23.5t-25 63.5q0 23 7 43t17.5 37t22.5 29.5t21 20.5l48 -12q-15 -16 -26 -34q-10 -15 -17.5 -35t-7.5 -40q0 -18 10.5 -27.5t27.5 -9.5q12 0 22 1t22 6q8 3 12 0.5t8 -12.5z" />
    <glyph glyph-name="caron" unicode="&#x2c7;" horiz-adv-x="418" 
d="M364 706q4 -5 3 -11.5t-7 -11.5l-138 -110q-18 -15 -38 0l-137 109q-6 5 -7 12t3 12l11 16q4 5 12.5 7.5t14.5 -1.5l126 -76l121 76q6 4 14 1.5t12 -7.5z" />
    <glyph glyph-name="Scaron" unicode="&#x160;" horiz-adv-x="483" 
d="M439 187q0 -38 -13.5 -72.5t-41 -61t-69 -42.5t-96.5 -16q-42 0 -84 8.5t-71 19.5q-19 7 -14 25l10 39q2 8 8.5 13t17.5 1q27 -10 61.5 -19.5t72.5 -9.5q60 0 95.5 30.5t35.5 81.5q0 46 -28 71t-68 43l-47 21q-27 12 -53.5 25.5t-48 33.5t-34.5 48.5t-13 70.5
q0 38 13.5 70.5t39 56.5t63 37.5t86.5 13.5q31 0 65 -6.5t57 -14.5q7 -2 10.5 -10t1.5 -16l-8 -32q-2 -8 -9.5 -13t-13.5 -3q-25 8 -48.5 13.5t-54.5 5.5q-62 0 -89 -26t-27 -73q0 -22 8 -38t22.5 -28.5t33 -22t39.5 -18.5l55 -23q28 -12 52.5 -27t43 -36t29.5 -50.5
t11 -69.5zM392 861q4 -5 3 -12t-7 -12l-124 -98q-9 -8 -19.5 -7.5t-18.5 7.5l-125 100q-13 11 -4 23l11 16q4 5 12 7.5t14 -1.5l106 -74l112 75q6 4 14.5 1.5t12.5 -7.5z" />
    <glyph glyph-name="scaron" unicode="&#x161;" horiz-adv-x="385" 
d="M343 130q0 -30 -11 -54.5t-31 -42.5t-49 -28t-65 -10q-32 0 -69 7t-64 21q-17 9 -11 27l9 30q3 11 10.5 14t15.5 -1q24 -12 52.5 -19.5t58.5 -7.5q38 0 55.5 17t17.5 48q0 23 -15 39t-38 30t-49.5 28t-49.5 31.5t-38 41t-15 56.5q0 58 41 94t112 36q35 0 59 -6t44 -15
q15 -8 9 -27l-9 -25q-6 -17 -25 -10q-15 6 -36.5 12t-44.5 6q-34 0 -52.5 -16t-18.5 -43q0 -21 15.5 -36.5t38.5 -29t49.5 -27.5t49.5 -33t38.5 -45t15.5 -62zM362 706q4 -5 3 -11.5t-7 -11.5l-138 -110q-18 -15 -38 0l-137 109q-6 5 -7 12t3 12l11 16q4 5 12.5 7.5
t14.5 -1.5l126 -76l121 76q6 4 14 1.5t12 -7.5z" />
    <glyph glyph-name="Yacute" unicode="&#xdd;" horiz-adv-x="495" 
d="M289 255v-235q0 -8 -6.5 -14t-14.5 -6h-38q-8 0 -14.5 6t-6.5 14v235l-183 396q-3 6 0.5 12.5t13.5 6.5h63q14 0 19 -12l102 -246q14 -32 19.5 -55.5t10.5 -47.5q4 24 9.5 46.5t19.5 57.5l96 243q5 14 21 14h59q7 0 11 -4.5t-1 -15.5zM397 839q6 -11 2 -18t-12 -11
l-175 -79q-17 -8 -25 7l-9 17q-8 16 9 26l163 103q16 10 26 -6z" />
    <glyph glyph-name="yacute" unicode="&#xfd;" horiz-adv-x="438" 
d="M263 -68q-11 -42 -34.5 -73t-61.5 -49l-21 -10q-7 -3 -14.5 -1t-11.5 10l-14 28q-3 6 0 15.5t10 12.5l15 7q29 14 43 39.5t23 60.5l17 65h-31q-19 0 -24 19l-130 406q-3 8 3 14t14 6h47q19 0 25 -20l97 -333q3 -11 5.5 -25l4.5 -26q2 11 6.5 30.5t9.5 38.5l82 316
q4 19 24 19h45q8 0 13.5 -6t3.5 -14zM357 679q6 -11 2 -18t-12 -11l-175 -79q-17 -8 -25 7l-9 17q-8 16 9 26l163 103q16 10 26 -6z" />
    <glyph glyph-name="Thorn" unicode="&#xde;" horiz-adv-x="508" 
d="M384 336q0 57 -29.5 89.5t-91.5 32.5h-82v-250h82q59 0 90 37t31 91zM468 339q0 -44 -13.5 -80.5t-40 -63t-65.5 -41.5t-89 -15h-79v-119q0 -8 -6.5 -14t-14.5 -6h-39q-8 0 -14.5 6t-6.5 14v630q0 8 6.5 14t14.5 6h39q8 0 14.5 -6t6.5 -14v-120h76q104 0 157.5 -52.5
t53.5 -138.5z" />
    <glyph glyph-name="thorn" unicode="&#xfe;" horiz-adv-x="473" 
d="M343 240q0 55 -7 88.5t-18 53.5q-21 39 -67 39t-71.5 -46.5t-25.5 -136.5q0 -91 24.5 -134t73.5 -43q47 0 69 41.5t22 137.5zM428 239q0 -244 -157 -244q-42 0 -68.5 16.5t-46.5 45.5v-234q0 -9 -6.5 -14.5t-14.5 -5.5h-36q-8 0 -14.5 5.5t-6.5 14.5v865q0 9 6.5 14.5
t14.5 5.5h36q8 0 14.5 -5.5t6.5 -14.5v-272q39 71 112 71q32 0 62 -14t50 -40q13 -17 22 -35.5t15 -41.5t8.5 -51.5t2.5 -65.5z" />
    <glyph glyph-name="Zcaron" unicode="&#x17d;" horiz-adv-x="499" 
d="M450 20q0 -8 -6 -14t-14 -6h-360q-8 0 -14 6t-6 14v41q0 8 3 15.5t6 12.5l273 472q8 13 18 23.5t19 18.5q-23 -6 -58 -6h-230q-9 0 -15.5 6t-6.5 14v33q0 9 6.5 14.5t15.5 5.5h338q8 0 14 -5.5t6 -14.5v-36q0 -8 -3 -16.5t-8 -16.5l-270 -468q-8 -15 -18 -26t-19 -18
q9 2 23 4t29 2h257q8 0 14 -6t6 -14v-35zM402 861q4 -5 3 -12t-7 -12l-124 -98q-9 -8 -19.5 -7.5t-18.5 7.5l-125 100q-13 11 -4 23l11 16q4 5 12 7.5t14 -1.5l106 -74l112 75q6 4 14.5 1.5t12.5 -7.5z" />
    <glyph glyph-name="zcaron" unicode="&#x17e;" horiz-adv-x="386" 
d="M346 21q0 -8 -6 -14.5t-14 -6.5h-264q-11 0 -16.5 8t-5.5 22v23q0 7 2.5 13t5.5 11l193 311q6 10 11.5 18t10.5 13q-7 -2 -15.5 -2h-13.5h-160q-9 0 -14.5 6.5t-5.5 14.5v23q0 8 5.5 14.5t14.5 6.5h247q8 0 14 -6.5t6 -14.5v-31q0 -13 -7 -24l-184 -298l-15 -23t-14 -20
q8 1 18.5 1.5t18.5 0.5h168q8 0 14 -5t6 -13v-28zM361 706q4 -5 3 -11.5t-7 -11.5l-138 -110q-18 -15 -38 0l-137 109q-6 5 -7 12t3 12l11 16q4 5 12.5 7.5t14.5 -1.5l126 -76l121 76q6 4 14 1.5t12 -7.5z" />
    <glyph glyph-name="onehalf" unicode="&#xbd;" horiz-adv-x="727" 
d="M241 296q0 -6 -4 -10.5t-10 -4.5h-149q-6 0 -10 4.5t-4 10.5v36q0 14 14 14h42v226l-38 -18q-12 -5 -18 6l-17 34q-2 5 -1.5 11t5.5 8l113 54q8 4 19.5 2t11.5 -15v-308h32q14 0 14 -14v-36zM270 -28q-4 -16 -19 -16h-35q-12 0 -14.5 5.5t0.5 15.5l209 723q6 20 23 20h31
q21 0 14 -23zM686 15q0 -6 -4 -10.5t-10 -4.5h-220q-6 0 -10 4.5t-4 10.5v39q0 11 6 17l69.5 63.5t48.5 47.5t28 40t9 41q0 26 -18 40.5t-41 14.5q-22 0 -35 -5.5t-29 -14.5q-8 -5 -12.5 -1t-7.5 9l-19 37q-5 10 10 18q22 13 44 20.5t49 7.5q30 0 54.5 -9.5t42 -26t27 -39
t9.5 -47.5q0 -26 -8 -48.5t-25.5 -45t-45 -47t-65.5 -55.5h143q6 0 10 -4.5t4 -10.5v-41z" />
    <glyph glyph-name="onequarter" unicode="&#xbc;" horiz-adv-x="682" 
d="M242 296q0 -6 -4 -10.5t-10 -4.5h-150q-6 0 -10 4.5t-4 10.5v36q0 14 14 14h42v226l-38 -18q-12 -5 -18 6l-17 34q-2 5 -1.5 11t5.5 8l113 54q8 4 19.5 2t11.5 -15v-308h33q14 0 14 -14v-36zM270 -28q-4 -16 -19 -16h-35q-12 0 -14.5 5.5t0.5 15.5l209 723q6 20 23 20h31
q21 0 14 -23zM662 67q0 -6 -4 -10.5t-10 -4.5h-35v-83q0 -14 -14 -14h-44q-6 0 -10.5 4t-4.5 10v83h-147q-6 0 -10 4.5t-4 10.5v40q0 5 1 7.5l3 7.5l108 296q4 10 15 10h56q7 0 8.5 -4.5t-0.5 -9.5l-114 -296h84l11 139q2 14 15 14h33q14 0 14 -14v-139h35q14 0 14 -14v-37z
" />
    <glyph glyph-name="onesuperior" unicode="&#xb9;" horiz-adv-x="281" 
d="M241 296q0 -6 -4 -10.5t-10 -4.5h-149q-6 0 -10 4.5t-4 10.5v36q0 14 14 14h42v226l-38 -18q-12 -5 -18 6l-17 34q-2 5 -1.5 11t5.5 8l113 54q8 4 19.5 2t11.5 -15v-308h32q14 0 14 -14v-36z" />
    <glyph glyph-name="threequarters" unicode="&#xbe;" horiz-adv-x="740" 
d="M303 331q0 -72 -61.5 -113.5t-171.5 -41.5q-9 0 -12.5 4t-4.5 10l-3 36q-2 14 14 14q164 0 164 94q0 35 -27.5 56.5t-81.5 21.5q-17 0 -17 14v42q0 16 17 16q18 0 34.5 4t29.5 12.5t21 20.5t8 29q0 28 -17.5 39.5t-46.5 11.5q-16 0 -30.5 -3.5t-29.5 -13.5q-12 -8 -19 6
l-19 36q-5 8 -2 12.5t11 9.5q23 12 47 17t48 5q27 0 50.5 -8.5t41.5 -23.5t28 -36t10 -47q0 -29 -18 -57.5t-58 -45.5q42 -8 68.5 -39t26.5 -82zM328 -28q-4 -16 -19 -16h-35q-12 0 -14.5 5.5t0.5 15.5l209 723q6 20 23 20h31q21 0 14 -23zM720 67q0 -6 -4 -10.5t-10 -4.5
h-34v-83q0 -6 -4.5 -10t-10.5 -4h-44q-14 0 -14 14v83h-147q-6 0 -10 4.5t-4 10.5v40q0 5 1 7.5l3 7.5l108 296q4 10 15 10h55q7 0 9 -4.5t0 -9.5l-114 -296h84l11 139q2 14 15 14h32q6 0 10.5 -4t4.5 -10v-139h34q14 0 14 -14v-37z" />
    <glyph glyph-name="threesuperior" unicode="&#xb3;" horiz-adv-x="328" 
d="M298 331q0 -72 -61.5 -113.5t-171.5 -41.5q-9 0 -12.5 4t-4.5 10l-3 36q-2 14 14 14q164 0 164 94q0 35 -27.5 56.5t-81.5 21.5q-17 0 -17 14v42q0 16 17 16q18 0 34.5 4t29.5 12.5t21 20.5t8 29q0 28 -17.5 39.5t-46.5 11.5q-16 0 -30.5 -3.5t-29.5 -13.5q-12 -8 -19 6
l-19 36q-5 8 -2 12.5t11 9.5q23 12 47 17t48 5q27 0 50.5 -8.5t41.5 -23.5t28 -36t10 -47q0 -29 -18 -57.5t-58 -45.5q42 -8 68.5 -39t26.5 -82z" />
    <glyph glyph-name="twosuperior" unicode="&#xb2;" horiz-adv-x="329" 
d="M287 296q0 -6 -4 -10.5t-10 -4.5h-220q-6 0 -10 4.5t-4 10.5v39q0 10 7 17l69 63.5t47.5 47.5t27.5 40t9 41q0 26 -17 40.5t-40 14.5q-22 0 -35.5 -5.5t-29.5 -14.5q-8 -5 -12 -1t-7 9l-19 37q-5 10 9 18q22 13 44.5 20.5t49.5 7.5q30 0 54.5 -9.5t42 -26t27 -39
t9.5 -47.5q0 -26 -8 -48.5t-25.5 -45t-45 -47t-65.5 -55.5h142q6 0 10 -4.5t4 -10.5v-41z" />
    <glyph glyph-name="brokenbar" unicode="&#xa6;" horiz-adv-x="256" 
d="M161 -230q0 -8 -6.5 -14t-14.5 -6h-24q-8 0 -14.5 6t-6.5 14v380q0 9 6.5 14.5t14.5 5.5h24q8 0 14.5 -5.5t6.5 -14.5v-380zM161 350q0 -8 -6.5 -14t-14.5 -6h-24q-8 0 -14.5 6t-6.5 14v380q0 9 6.5 14.5t14.5 5.5h24q8 0 14.5 -5.5t6.5 -14.5v-380z" />
    <glyph glyph-name="minus" unicode="&#x2212;" horiz-adv-x="479" 
d="M425 248q0 -21 -22 -21h-324q-21 0 -21 21v28q0 22 21 22h324q22 0 22 -22v-28z" />
    <glyph glyph-name="multiply" unicode="&#xd7;" horiz-adv-x="528" 
d="M316 237l150 -149q15 -16 0 -31l-25 -25q-15 -15 -31 1l-149 149l-150 -151q-16 -16 -32 0l-23 24q-15 14 1 30l150 151l-154 154q-15 14 0 29l25 25q15 15 30 1l155 -154l151 151q15 15 30 0l23 -23q16 -16 1 -31z" />
    <glyph glyph-name="lslash" unicode="&#x142;" horiz-adv-x="246" 
d="M241 27q3 -15 -13 -21q-27 -11 -59 -11q-48 0 -69.5 21.5t-21.5 63.5v189l-41 -27q-8 -5 -13 -2t-5 14v46q0 11 2 15t10 9l47 31v333q0 9 6.5 14.5t14.5 5.5h36q8 0 14.5 -5.5t6.5 -14.5v-282l44 28q8 5 13.5 1.5t5.5 -14.5v-43q0 -11 -1.5 -16t-9.5 -10l-52 -33v-219
q0 -19 4 -29t21 -10q7 0 15 2t17 4q18 4 22 -13z" />
    <glyph glyph-name="apple" horiz-adv-x="818" 
d="M473 19q0 -10 -7 -16.5t-17 -6.5h-54q-10 0 -17 6.5t-7 16.5v281h-49q-10 0 -16.5 7t-6.5 17v32q0 10 6.5 17t16.5 7h127q11 0 17.5 -6.5t6.5 -16.5v-338zM487 519q0 -28 -20 -47.5t-48 -19.5t-47.5 19.5t-19.5 47.5t19.5 47.5t47.5 19.5t48 -19.5t20 -47.5zM728 646
q0 27 -24 27h-591q-11 0 -17 -7.5t-6 -18.5v-708q0 -11 5.5 -18.5t19.5 -7.5h591q22 0 22 26v707zM778 -61q0 -37 -21 -55t-51 -18h-593q-32 0 -52.5 18t-20.5 55v708q0 37 22 55t51 18h593q31 0 51.5 -19.5t20.5 -54.5v-707z" />
    <glyph glyph-name="Eth" unicode="&#xd0;" horiz-adv-x="577" 
d="M433 329q0 48 -3.5 83t-10.5 61t-17 45t-23 34q-22 25 -53.5 36t-65.5 11h-79v-201h63q22 0 22 -22v-32q0 -21 -22 -21h-63v-250h79q37 0 68.5 8t54.5 35t36.5 77.5t13.5 135.5zM521 343q0 -86 -13.5 -150.5t-44 -107.5t-79.5 -64t-121 -21h-142q-8 0 -14.5 6t-6.5 14
v303h-35q-21 0 -21 21v32q0 22 21 22h35v252q0 9 6.5 14.5t14.5 5.5h139q138 0 199.5 -82.5t61.5 -244.5z" />
    <glyph glyph-name="eth" unicode="&#xf0;" horiz-adv-x="488" 
d="M361 232q0 12 -1 26t-2.5 27t-3 22.5t-2.5 12.5q-7 6 -19.5 12t-28 11.5t-32.5 8.5t-33 3q-51 0 -79.5 -36.5t-28.5 -108.5q0 -70 31 -113.5t85 -43.5t84 49t30 130zM445 241q0 -61 -15.5 -107.5t-43 -78t-64.5 -47.5t-80 -16q-44 0 -80 17t-61.5 46.5t-39 69.5t-13.5 87
q0 46 13.5 83t38 63t58 40.5t72.5 14.5q23 0 53.5 -8t54.5 -23q-11 32 -28 64.5t-42 61.5l-41 -27q-15 -10 -28 2l-24 21q-17 15 1 26l40 26q-60 46 -143 71q-14 5 -14 11t3 14l11 30q3 9 10 10.5t18 -1.5q48 -14 93.5 -37.5t85.5 -56.5l41 27q16 11 29 -1l25 -23
q14 -13 -4 -25l-41 -27q53 -60 84 -136.5t31 -170.5z" />
    <glyph glyph-name="Lslash" unicode="&#x141;" horiz-adv-x="429" 
d="M421 20q0 -8 -6 -14t-14 -6h-280q-8 0 -14.5 6t-6.5 14v248l-46 -29q-8 -5 -13 -2t-5 14l1 46q0 11 2 15t10 9l51 33v296q0 9 6.5 14.5t14.5 5.5h38q8 0 14.5 -5.5t6.5 -14.5v-244l51 34q8 5 14 1t6 -15l-1 -42q0 -11 -1.5 -16t-9.5 -10l-59 -38v-246h221q8 0 14 -6
t6 -14v-34z" />
  </font>
</defs>
</svg>
